<?xml version="1.0" encoding="utf-8"?>
<!-- Generator: Adobe Illustrator 19.1.0, SVG Export Plug-In . SVG Version: 6.00 Build 0)  -->
<svg version="1.1" id="Layer_1" xmlns="http://www.w3.org/2000/svg" xmlns:xlink="http://www.w3.org/1999/xlink" x="0px" y="0px"
	 viewBox="0 0 68 89" style="enable-background:new 0 0 68 89;" xml:space="preserve">
<style type="text/css">
	.st0{fill:#FFFFFF;stroke:#050101;stroke-miterlimit:10;}
	.st1{fill:url(#SVGID_1_);}
	.st2{fill:url(#SVGID_2_);}
	.st3{fill:url(#SVGID_3_);}
	.st4{fill:#E67575;}
	.st5{fill:#FFFFFF;}
	.st6{fill:url(#SVGID_4_);}
	.st7{fill:#FADC87;}
	.st8{fill:url(#SVGID_5_);}
	.st9{fill:url(#SVGID_6_);}
	.st10{fill:#8DD0AF;}
	.st11{fill:url(#SVGID_7_);}
	.st12{fill:url(#SVGID_8_);}
	.st13{fill:url(#SVGID_9_);}
	.st14{fill:url(#SVGID_10_);}
	.st15{fill:url(#SVGID_11_);}
	.st16{fill:url(#SVGID_12_);}
	.st17{fill:url(#SVGID_13_);}
	.st18{fill:url(#SVGID_14_);}
	.st19{fill:url(#SVGID_15_);}
	.st20{fill:#FAFAFA;}
	.st21{fill:url(#SVGID_16_);}
	.st22{fill:url(#SVGID_17_);}
	.st23{fill:#A6C5FA;}
	.st24{fill:url(#SVGID_18_);}
	.st25{fill:url(#SVGID_19_);}
	.st26{fill:#C5AFF2;}
	.st27{fill:url(#SVGID_20_);}
	.st28{fill:url(#SVGID_21_);}
	.st29{fill:url(#SVGID_22_);}
	.st30{fill:url(#SVGID_23_);}
	.st31{fill:url(#SVGID_24_);}
	.st32{fill:url(#SVGID_25_);}
	.st33{fill:url(#SVGID_26_);}
	.st34{fill:url(#SVGID_27_);}
	.st35{fill:url(#SVGID_28_);}
	.st36{fill:url(#SVGID_29_);}
	.st37{fill:url(#SVGID_30_);}
	.st38{fill:url(#SVGID_31_);}
	.st39{fill:url(#SVGID_32_);}
	.st40{fill:url(#SVGID_33_);}
	.st41{fill:url(#SVGID_34_);}
	.st42{fill:url(#SVGID_35_);}
</style>
<g>
	<linearGradient id="SVGID_1_" gradientUnits="userSpaceOnUse" x1="0" y1="44.5" x2="68" y2="44.5">
		<stop  offset="0" style="stop-color:#189F5D"/>
		<stop  offset="1" style="stop-color:#1DA462"/>
	</linearGradient>
	<path class="st1" d="M47,26c-1.3,0-2.5-0.5-3.4-1.3c-1-0.9-1.6-2.2-1.6-3.7V0H5C2.2,0,0,2.2,0,5v79c0,2.8,2.2,5,5,5h58
		c2.8,0,5-2.2,5-5V49V26H47z"/>
	<linearGradient id="SVGID_2_" gradientUnits="userSpaceOnUse" x1="43.6382" y1="36.8598" x2="68" y2="36.8598">
		<stop  offset="0" style="stop-color:#000000;stop-opacity:0.1"/>
		<stop  offset="1" style="stop-color:#000000;stop-opacity:0"/>
	</linearGradient>
	<path class="st2" d="M47,26c-1.3,0-2.5-0.5-3.4-1.3L68,49V26H47z"/>
	<path class="st10" d="M54.9,12.9L42,0v21c0,1.3,0.5,2.5,1.3,3.4l0,0l0.3,0.3c0.9,0.8,2.1,1.3,3.4,1.3h21L54.9,12.9z"/>
</g>
<g>
	<path class="st5" d="M29.8,44.8H17.4v10.1v2.4v7.7v2.4v9.9h12.4h20.8v-9.9v-2.4v-7.7v-2.4V44.8H29.8z M26.9,74.8h-7.1v-7.9h7.1
		V74.8z M26.9,64.5h-7.1v-7.9h7.1V64.5z M26.9,54.2h-7.1v-7.1h7.1V54.2z M48.2,74.8h-19v-7.9h19V74.8z M48.2,64.5h-19v-7.9h19V64.5z
		 M48.2,54.2h-19v-7.1h19V54.2z"/>
</g>
</svg>
