<?xml version="1.0" encoding="utf-8"?>
<!-- Generator: Adobe Illustrator 19.1.0, SVG Export Plug-In . SVG Version: 6.00 Build 0)  -->
<svg version="1.1" id="Layer_1" xmlns="http://www.w3.org/2000/svg" xmlns:xlink="http://www.w3.org/1999/xlink" x="0px" y="0px"
	 viewBox="0 0 103 117.3" style="enable-background:new 0 0 103 117.3;" xml:space="preserve">
<style type="text/css">
	.st0{fill:#FFFFFF;stroke:#050101;stroke-miterlimit:10;}
	.st1{fill:url(#SVGID_1_);}
	.st2{fill:url(#SVGID_2_);}
	.st3{fill:url(#SVGID_3_);}
	.st4{fill:#E67575;}
	.st5{fill:#FFFFFF;}
	.st6{fill:url(#SVGID_4_);}
	.st7{fill:url(#SVGID_5_);}
	.st8{fill:url(#SVGID_6_);}
	.st9{fill:url(#SVGID_7_);}
	.st10{fill:#FADC87;}
	.st11{fill:url(#SVGID_8_);}
	.st12{fill:url(#SVGID_9_);}
	.st13{fill:#8DD0AF;}
	.st14{fill:url(#SVGID_10_);}
	.st15{fill:url(#SVGID_11_);}
	.st16{fill:url(#SVGID_12_);}
	.st17{fill:url(#SVGID_13_);}
	.st18{fill:url(#SVGID_14_);}
</style>
<g>
	<linearGradient id="SVGID_1_" gradientUnits="userSpaceOnUse" x1="95.4198" y1="5.1657" x2="0.7069" y2="122.2593">
		<stop  offset="0" style="stop-color:#CB4239"/>
		<stop  offset="1" style="stop-color:#CD392F"/>
	</linearGradient>
	<path class="st1" d="M61.9,36.9c-1-1.1-1.6-2.6-1.6-4.2v-5.4V0.5l-0.2,0.2h-49c-3.6,0-6.8,2.6-6.8,6.1v104.7c0,3.6,3.2,7.1,6.8,7.1
		h81.5c3.6,0,5.7-3.6,5.7-7.1V74.1L62.2,37.5L61.9,36.9z"/>
	<linearGradient id="SVGID_2_" gradientUnits="userSpaceOnUse" x1="110.762" y1="18.1817" x2="16.2493" y2="135.0279">
		<stop  offset="0" style="stop-color:#CB4239"/>
		<stop  offset="1" style="stop-color:#CD392F"/>
	</linearGradient>
	<path class="st2" d="M98.9,39.7H66.7c-1.6,0-3.5-0.9-4.6-1.9l36.2,36.3V39.3L98.9,39.7z"/>
	<linearGradient id="SVGID_3_" gradientUnits="userSpaceOnUse" x1="60.4048" y1="17.6523" x2="121.9048" y2="82.0979">
		<stop  offset="0" style="stop-color:#A83E39;stop-opacity:0.7"/>
		<stop  offset="1" style="stop-color:#CD392F;stop-opacity:0"/>
	</linearGradient>
	<path class="st3" d="M98.9,39.7H66.7c-1.6,0-3.5-0.9-4.6-1.9l36.2,36.3V39.3L98.9,39.7z"/>
	<path class="st4" d="M60.3,32.7c0,1.6,0.6,3.1,1.6,4.2l0.6,0.9c1.1,1,2.6,1.9,4.2,1.9h32.2L60.3,0.5v26.8V32.7z"/>
</g>
<g>
	<path class="st5" d="M18.1,19.2v5h-2.8V10.4h5.5c1.6,0,2.8,0.4,3.7,1.2c0.9,0.8,1.4,1.9,1.4,3.2s-0.5,2.4-1.4,3.2
		c-0.9,0.8-2.2,1.2-3.7,1.2H18.1z M18.1,17.1h2.7c0.8,0,1.4-0.2,1.8-0.6c0.4-0.4,0.6-1,0.6-1.6c0-0.7-0.2-1.2-0.6-1.6
		c-0.4-0.4-1-0.6-1.8-0.6h-2.7V17.1z"/>
	<path class="st5" d="M28,24.2V10.4h4.7c1.7,0,3.1,0.5,4.2,1.6s1.6,2.5,1.6,4.1v2.3c0,1.7-0.5,3.1-1.6,4.1c-1.1,1.1-2.5,1.6-4.2,1.6
		H28z M30.8,12.5v9.5h1.8c1,0,1.8-0.3,2.3-1c0.6-0.7,0.8-1.5,0.8-2.6v-2.3c0-1.1-0.3-1.9-0.8-2.6c-0.6-0.7-1.3-1-2.3-1H30.8z"/>
	<path class="st5" d="M49.2,18.5h-5.8v5.7h-2.8V10.4h9.5v2.1h-6.7v3.8h5.8V18.5z"/>
</g>
<g>
	<g>
		<path class="st5" d="M82.7,83.6c-2.2-4-12-6.6-20.6-7.1c-0.8-0.8-1.6-1.7-2.4-2.6c-7.4-8.5-10.4-20.8-11.5-27.3
			c-0.1-1.4-0.3-2.5-0.4-3.4c-0.1-0.7-0.3-2.1-1.8-2.1c-0.5,0-0.9,0.2-1.3,0.6c-0.5,0.6-0.4,1.3-0.4,2c0.1,0.9,0.3,2,0.5,3.3
			c0.6,6.6,0.9,19.3-4.2,29.3c-0.5,1-1.1,2-1.6,3C29.5,82,21.8,87,20.7,91.1c-0.4,1.5,0,2.9,1,4c1.2,1.3,2.7,1.9,4.3,1.9
			c4.5,0,9.7-5,15.3-14.9c2.5-0.7,5-1.1,7.4-1.4c0.9-0.1,2.5-0.3,3.4-0.4c2.6-0.4,5.5-0.6,8.5-0.5c6.9,7.2,12.6,10.8,16.8,10.8
			c2.3,0,4.2-1.1,5.3-3.1C83.4,86.3,83.4,84.9,82.7,83.6L82.7,83.6z M26,93.7c-0.7,0-1.3-0.3-1.9-0.9c-0.2-0.3-0.3-0.5-0.2-0.8
			c0.6-2.1,5.5-5.7,12.6-8.4C32.5,90,28.6,93.7,26,93.7L26,93.7z M51.6,77c-0.9,0.1-2.3,0.3-3.2,0.4c-1.6,0.2-3.3,0.4-5,0.8
			c0.1-0.1,0.1-0.3,0.2-0.4c2.5-4.9,4-10.8,4.6-17.6c2.3,6.4,5.3,11.8,8.9,15.9c0.1,0.1,0.2,0.3,0.3,0.4
			C55.4,76.5,53.4,76.7,51.6,77L51.6,77z M79.8,85.9c-0.6,1-1.3,1.4-2.5,1.4c-2.6,0-6.7-2.5-11.6-7.1c7.6,0.9,13.1,3.2,14.1,5
			C79.9,85.5,79.9,85.6,79.8,85.9L79.8,85.9z M79.8,85.9"/>
	</g>
</g>
</svg>
