<?xml version="1.0" encoding="utf-8"?>
<!-- Generator: Adobe Illustrator 19.1.0, SVG Export Plug-In . SVG Version: 6.00 Build 0)  -->
<svg version="1.1" id="Layer_1" xmlns="http://www.w3.org/2000/svg" xmlns:xlink="http://www.w3.org/1999/xlink" x="0px" y="0px"
	 viewBox="0 0 68 89" style="enable-background:new 0 0 68 89;" xml:space="preserve">
<style type="text/css">
	.st0{fill:#FFFFFF;stroke:#050101;stroke-miterlimit:10;}
	.st1{fill:url(#SVGID_1_);}
	.st2{fill:url(#SVGID_2_);}
	.st3{fill:url(#SVGID_3_);}
	.st4{fill:#E67575;}
	.st5{fill:#FFFFFF;}
	.st6{fill:url(#SVGID_4_);}
	.st7{fill:#FADC87;}
	.st8{fill:url(#SVGID_5_);}
	.st9{fill:url(#SVGID_6_);}
	.st10{fill:#8DD0AF;}
	.st11{fill:url(#SVGID_7_);}
	.st12{fill:url(#SVGID_8_);}
	.st13{fill:url(#SVGID_9_);}
	.st14{fill:url(#SVGID_10_);}
	.st15{fill:url(#SVGID_11_);}
	.st16{fill:url(#SVGID_12_);}
	.st17{fill:url(#SVGID_13_);}
	.st18{fill:url(#SVGID_14_);}
	.st19{fill:url(#SVGID_15_);}
	.st20{fill:#FAFAFA;}
	.st21{fill:url(#SVGID_16_);}
	.st22{fill:url(#SVGID_17_);}
	.st23{fill:#A6C5FA;}
	.st24{fill:url(#SVGID_18_);}
	.st25{fill:url(#SVGID_19_);}
	.st26{fill:#C5AFF2;}
	.st27{fill:url(#SVGID_20_);}
	.st28{fill:url(#SVGID_21_);}
	.st29{fill:url(#SVGID_22_);}
	.st30{fill:url(#SVGID_23_);}
	.st31{fill:url(#SVGID_24_);}
	.st32{fill:url(#SVGID_25_);}
	.st33{fill:url(#SVGID_26_);}
	.st34{fill:url(#SVGID_27_);}
	.st35{fill:url(#SVGID_28_);}
	.st36{fill:url(#SVGID_29_);}
	.st37{fill:url(#SVGID_30_);}
	.st38{fill:url(#SVGID_31_);}
	.st39{fill:url(#SVGID_32_);}
	.st40{fill:url(#SVGID_33_);}
	.st41{fill:url(#SVGID_34_);}
	.st42{fill:url(#SVGID_35_);}
</style>
<linearGradient id="SVGID_1_" gradientUnits="userSpaceOnUse" x1="0" y1="44.5" x2="68" y2="44.5">
	<stop  offset="0" style="stop-color:#F5BA15"/>
	<stop  offset="1" style="stop-color:#F4B505"/>
</linearGradient>
<path class="st1" d="M47,26c-1.3,0-2.5-0.5-3.4-1.3c-1-0.9-1.6-2.2-1.6-3.7V0H5C2.2,0,0,2.2,0,5v79c0,2.8,2.2,5,5,5h58
	c2.8,0,5-2.2,5-5V49V26H47z"/>
<linearGradient id="SVGID_2_" gradientUnits="userSpaceOnUse" x1="43.6382" y1="36.8598" x2="68" y2="36.8598">
	<stop  offset="0" style="stop-color:#000000;stop-opacity:0.1"/>
	<stop  offset="1" style="stop-color:#000000;stop-opacity:0"/>
</linearGradient>
<path class="st2" d="M47,26c-1.3,0-2.5-0.5-3.4-1.3L68,49V26H47z"/>
<path class="st7" d="M54.9,12.9L42,0v21c0,1.3,0.5,2.5,1.3,3.4l0,0l0.3,0.3c0.9,0.8,2.1,1.3,3.4,1.3h21L54.9,12.9z"/>
<g>
	<path class="st5" d="M46.1,44.7H21.4c-1.9,0-3.5,1.6-3.5,3.5v24.7c0,1.9,1.6,3.5,3.5,3.5h24.7c1.9,0,3.5-1.6,3.5-3.5V48.2
		C49.6,46.3,48.1,44.7,46.1,44.7L46.1,44.7z M46.1,67.6H21.4V53.5h24.7V67.6z M46.1,67.6"/>
</g>
</svg>
