<?xml version="1.0" encoding="utf-8"?>
<!-- Generator: Adobe Illustrator 19.1.0, SVG Export Plug-In . SVG Version: 6.00 Build 0)  -->
<svg version="1.1" id="Layer_1" xmlns="http://www.w3.org/2000/svg" xmlns:xlink="http://www.w3.org/1999/xlink" x="0px" y="0px"
	 viewBox="0 0 103 117.3" style="enable-background:new 0 0 103 117.3;" xml:space="preserve">
<style type="text/css">
	.st0{fill:#FFFFFF;stroke:#050101;stroke-miterlimit:10;}
	.st1{fill:url(#SVGID_1_);}
	.st2{fill:url(#SVGID_2_);}
	.st3{fill:url(#SVGID_3_);}
	.st4{fill:#E67575;}
	.st5{fill:#FFFFFF;}
	.st6{fill:url(#SVGID_4_);}
	.st7{fill:url(#SVGID_5_);}
	.st8{fill:url(#SVGID_6_);}
	.st9{fill:url(#SVGID_7_);}
	.st10{fill:#FADC87;}
	.st11{fill:url(#SVGID_8_);}
	.st12{fill:url(#SVGID_9_);}
	.st13{fill:#8DD0AF;}
	.st14{fill:url(#SVGID_10_);}
	.st15{fill:url(#SVGID_11_);}
	.st16{fill:url(#SVGID_12_);}
	.st17{fill:url(#SVGID_13_);}
	.st18{fill:url(#SVGID_14_);}
</style>
<g>
	<linearGradient id="SVGID_1_" gradientUnits="userSpaceOnUse" x1="100.4822" y1="-0.662" x2="-5.22" y2="124.6683">
		<stop  offset="0" style="stop-color:#F5BA15"/>
		<stop  offset="1" style="stop-color:#F4B505"/>
	</linearGradient>
	<path class="st1" d="M97.1,39h-32c-1.6,0-3.1-1-4.2-2l-0.5-0.8c-1-1.1-1.5-2.8-1.5-4.4v-5.3V-0.1L58.6,0H9.9C6.3,0,4,2.6,4,6.2
		v104.1c0,3.5,2.3,6.8,5.9,6.8h81c3.5,0,7.2-3.2,7.2-6.8V73V38.4L97.1,39z"/>
	<path class="st10" d="M59-0.1v26.7v5.3c0,1.6,0.5,3.1,1.5,4.2l0.5,1c1.1,1,2.5,2,4.1,2h32L59-0.1z"/>
	<linearGradient id="SVGID_2_" gradientUnits="userSpaceOnUse" x1="61.2936" y1="55.0211" x2="98" y2="55.0211">
		<stop  offset="0" style="stop-color:#000000;stop-opacity:0.1"/>
		<stop  offset="1" style="stop-color:#F4B505;stop-opacity:0"/>
	</linearGradient>
	<path class="st2" d="M97.1,39h-32c-1.6,0-2.7-1-3.8-2L98,73V38.4L97.1,39z"/>
</g>
<g>
	<path class="st5" d="M66.2,56.7H34.5c-2.5,0-4.5,2-4.5,4.5v31.7c0,2.5,2,4.5,4.5,4.5h31.7c2.5,0,4.5-2,4.5-4.5V61.2
		C70.7,58.7,68.7,56.7,66.2,56.7L66.2,56.7z M66.2,86.1H34.5V68h31.7V86.1z M66.2,86.1"/>
</g>
</svg>
