<?xml version="1.0" encoding="utf-8"?>
<!-- Generator: Adobe Illustrator 19.1.0, SVG Export Plug-In . SVG Version: 6.00 Build 0)  -->
<svg version="1.1" id="Layer_1" xmlns="http://www.w3.org/2000/svg" xmlns:xlink="http://www.w3.org/1999/xlink" x="0px" y="0px"
	 viewBox="0 0 68 89" style="enable-background:new 0 0 68 89;" xml:space="preserve">
<style type="text/css">
	.st0{fill:#FFFFFF;stroke:#050101;stroke-miterlimit:10;}
	.st1{fill:url(#SVGID_1_);}
	.st2{fill:url(#SVGID_2_);}
	.st3{fill:url(#SVGID_3_);}
	.st4{fill:#E67575;}
	.st5{fill:#FFFFFF;}
	.st6{fill:url(#SVGID_4_);}
	.st7{fill:#FADC87;}
	.st8{fill:url(#SVGID_5_);}
	.st9{fill:url(#SVGID_6_);}
	.st10{fill:#8DD0AF;}
	.st11{fill:url(#SVGID_7_);}
	.st12{fill:url(#SVGID_8_);}
	.st13{fill:url(#SVGID_9_);}
	.st14{fill:url(#SVGID_10_);}
	.st15{fill:url(#SVGID_11_);}
	.st16{fill:url(#SVGID_12_);}
	.st17{fill:url(#SVGID_13_);}
	.st18{fill:url(#SVGID_14_);}
	.st19{fill:url(#SVGID_15_);}
	.st20{fill:#FAFAFA;}
	.st21{fill:url(#SVGID_16_);}
	.st22{fill:url(#SVGID_17_);}
	.st23{fill:#A6C5FA;}
	.st24{fill:url(#SVGID_18_);}
	.st25{fill:url(#SVGID_19_);}
	.st26{fill:#C5AFF2;}
	.st27{fill:url(#SVGID_20_);}
	.st28{fill:url(#SVGID_21_);}
	.st29{fill:url(#SVGID_22_);}
	.st30{fill:url(#SVGID_23_);}
	.st31{fill:url(#SVGID_24_);}
	.st32{fill:url(#SVGID_25_);}
	.st33{fill:url(#SVGID_26_);}
	.st34{fill:url(#SVGID_27_);}
	.st35{fill:url(#SVGID_28_);}
	.st36{fill:url(#SVGID_29_);}
	.st37{fill:url(#SVGID_30_);}
	.st38{fill:url(#SVGID_31_);}
	.st39{fill:url(#SVGID_32_);}
	.st40{fill:url(#SVGID_33_);}
	.st41{fill:url(#SVGID_34_);}
	.st42{fill:url(#SVGID_35_);}
</style>
<g>
	<linearGradient id="SVGID_1_" gradientUnits="userSpaceOnUse" x1="0" y1="44.5" x2="68" y2="44.5">
		<stop  offset="0" style="stop-color:#CB4239"/>
		<stop  offset="1" style="stop-color:#CD392F"/>
	</linearGradient>
	<path class="st1" d="M47,26c-1.3,0-2.5-0.5-3.4-1.3c-1-0.9-1.6-2.2-1.6-3.7V0H5C2.2,0,0,2.2,0,5v79c0,2.8,2.2,5,5,5h58
		c2.8,0,5-2.2,5-5V49V26H47z"/>
	<linearGradient id="SVGID_2_" gradientUnits="userSpaceOnUse" x1="43.6382" y1="36.8598" x2="68" y2="36.8598">
		<stop  offset="0" style="stop-color:#000000;stop-opacity:0.1"/>
		<stop  offset="1" style="stop-color:#000000;stop-opacity:0"/>
	</linearGradient>
	<path class="st2" d="M47,26c-1.3,0-2.5-0.5-3.4-1.3L68,49V26H47z"/>
	<path class="st4" d="M54.9,12.9L42,0v21c0,1.3,0.5,2.5,1.3,3.4l0,0l0.3,0.3c0.9,0.8,2.1,1.3,3.4,1.3h21L54.9,12.9z"/>
</g>
<g>
	<g>
		<path class="st5" d="M51.8,67.3c-1.3-2.3-6.9-3.8-11.9-4.1c-0.4-0.5-0.9-1-1.4-1.5c-4.3-4.9-6-12-6.6-15.7c-0.1-0.8-0.2-1.5-0.2-2
			c-0.1-0.4-0.2-1.2-1-1.2c-0.3,0-0.5,0.1-0.7,0.3c-0.3,0.3-0.3,0.7-0.2,1.2c0.1,0.5,0.2,1.2,0.3,1.9c0.4,3.8,0.5,11.1-2.4,16.9
			c-0.3,0.6-0.6,1.2-0.9,1.7c-5.5,1.6-9.9,4.5-10.6,6.8c-0.2,0.9,0,1.7,0.6,2.3c0.7,0.7,1.5,1.1,2.5,1.1c2.6,0,5.6-2.9,8.8-8.6
			c1.4-0.4,2.9-0.6,4.3-0.8c0.5-0.1,1.4-0.2,2-0.3c1.5-0.2,3.2-0.3,4.9-0.3c4,4.1,7.2,6.2,9.7,6.2c1.3,0,2.4-0.6,3.1-1.8
			C52.2,68.9,52.2,68.1,51.8,67.3L51.8,67.3z M19.1,73.1c-0.4,0-0.8-0.2-1.1-0.5c-0.1-0.1-0.2-0.3-0.1-0.5c0.3-1.2,3.1-3.3,7.3-4.8
			C22.8,71,20.6,73.1,19.1,73.1L19.1,73.1z M33.8,63.5c-0.5,0.1-1.3,0.2-1.9,0.2c-0.9,0.1-1.9,0.2-2.9,0.4c0-0.1,0.1-0.2,0.1-0.2
			c1.4-2.8,2.3-6.2,2.7-10.1c1.3,3.7,3,6.8,5.1,9.2c0.1,0.1,0.1,0.1,0.2,0.2C36,63.2,34.9,63.3,33.8,63.5L33.8,63.5z M50.1,68.6
			c-0.3,0.6-0.8,0.8-1.4,0.8c-1.5,0-3.9-1.4-6.7-4.1c4.3,0.5,7.5,1.9,8.1,2.9C50.2,68.4,50.2,68.5,50.1,68.6L50.1,68.6z M50.1,68.6"
			/>
	</g>
</g>
</svg>
