<?xml version="1.0" encoding="utf-8"?>
<!-- Generator: Adobe Illustrator 19.1.0, SVG Export Plug-In . SVG Version: 6.00 Build 0)  -->
<svg version="1.1" id="Layer_1" xmlns="http://www.w3.org/2000/svg" xmlns:xlink="http://www.w3.org/1999/xlink" x="0px" y="0px"
	 viewBox="0 0 68 89" style="enable-background:new 0 0 68 89;" xml:space="preserve">
<style type="text/css">
	.st0{fill:#FFFFFF;stroke:#050101;stroke-miterlimit:10;}
	.st1{fill:url(#SVGID_1_);}
	.st2{fill:url(#SVGID_2_);}
	.st3{fill:url(#SVGID_3_);}
	.st4{fill:#E67575;}
	.st5{fill:#FFFFFF;}
	.st6{fill:url(#SVGID_4_);}
	.st7{fill:#FADC87;}
	.st8{fill:url(#SVGID_5_);}
	.st9{fill:url(#SVGID_6_);}
	.st10{fill:#8DD0AF;}
	.st11{fill:url(#SVGID_7_);}
	.st12{fill:url(#SVGID_8_);}
	.st13{fill:url(#SVGID_9_);}
	.st14{fill:url(#SVGID_10_);}
	.st15{fill:url(#SVGID_11_);}
	.st16{fill:url(#SVGID_12_);}
	.st17{fill:url(#SVGID_13_);}
	.st18{fill:url(#SVGID_14_);}
	.st19{fill:url(#SVGID_15_);}
	.st20{fill:#FAFAFA;}
	.st21{fill:url(#SVGID_16_);}
	.st22{fill:url(#SVGID_17_);}
	.st23{fill:#A6C5FA;}
	.st24{fill:url(#SVGID_18_);}
	.st25{fill:url(#SVGID_19_);}
	.st26{fill:#C5AFF2;}
	.st27{fill:url(#SVGID_20_);}
	.st28{fill:url(#SVGID_21_);}
	.st29{fill:url(#SVGID_22_);}
	.st30{fill:url(#SVGID_23_);}
	.st31{fill:url(#SVGID_24_);}
	.st32{fill:url(#SVGID_25_);}
	.st33{fill:url(#SVGID_26_);}
	.st34{fill:url(#SVGID_27_);}
	.st35{fill:url(#SVGID_28_);}
	.st36{fill:url(#SVGID_29_);}
	.st37{fill:url(#SVGID_30_);}
	.st38{fill:url(#SVGID_31_);}
	.st39{fill:url(#SVGID_32_);}
	.st40{fill:url(#SVGID_33_);}
	.st41{fill:url(#SVGID_34_);}
	.st42{fill:url(#SVGID_35_);}
</style>
<linearGradient id="SVGID_1_" gradientUnits="userSpaceOnUse" x1="73.5039" y1="-7.9559" x2="-17.9961" y2="113.5441">
	<stop  offset="0" style="stop-color:#ABABAB"/>
	<stop  offset="1" style="stop-color:#616161"/>
</linearGradient>
<path class="st1" d="M47,26c-1.3,0-2.5-0.5-3.4-1.3c-1-0.9-1.6-2.2-1.6-3.7V0H5C2.2,0,0,2.2,0,5v79c0,2.8,2.2,5,5,5h58
	c2.8,0,5-2.2,5-5V49V26H47z"/>
<linearGradient id="SVGID_2_" gradientUnits="userSpaceOnUse" x1="43.6382" y1="36.8598" x2="68" y2="36.8598">
	<stop  offset="0" style="stop-color:#000000;stop-opacity:0.1"/>
	<stop  offset="1" style="stop-color:#000000;stop-opacity:0"/>
</linearGradient>
<path class="st2" d="M47,26c-1.3,0-2.5-0.5-3.4-1.3L68,49V26H47z"/>
<path class="st20" d="M54.9,12.9L42,0v21c0,1.3,0.5,2.5,1.3,3.4l0,0l0.3,0.3c0.9,0.8,2.1,1.3,3.4,1.3h21L54.9,12.9z"/>
<g>
	<path class="st5" d="M21.8,65.7c0.6,0,1.1-0.2,1.5-0.5c0.4-0.4,0.6-0.8,0.6-1.4H27l0,0.1c0,1.3-0.5,2.4-1.4,3.2s-2.2,1.3-3.7,1.3
		c-1.9,0-3.3-0.6-4.4-1.8s-1.5-2.7-1.5-4.6v-0.4c0-1.9,0.5-3.4,1.5-4.6s2.5-1.8,4.4-1.8c1.6,0,2.8,0.4,3.8,1.3S27,58.6,27,60l0,0.1
		h-3.1c0-0.7-0.2-1.2-0.5-1.6s-0.9-0.7-1.5-0.7c-0.9,0-1.5,0.4-1.9,1.1s-0.6,1.6-0.6,2.7v0.4c0,1.1,0.2,2,0.6,2.7
		C20.3,65.3,20.9,65.7,21.8,65.7z"/>
	<path class="st5" d="M35.8,64.6c0-0.4-0.2-0.7-0.5-1s-1-0.5-2-0.7c-1.5-0.3-2.6-0.8-3.4-1.4s-1.1-1.4-1.1-2.4c0-1.1,0.5-2,1.4-2.8
		s2.1-1.1,3.7-1.1c1.6,0,2.9,0.4,3.9,1.1S39,58,39,59.2l0,0.1h-3.3c0-0.5-0.2-0.9-0.5-1.2s-0.8-0.5-1.4-0.5c-0.6,0-1,0.1-1.3,0.4
		s-0.5,0.6-0.5,1c0,0.4,0.2,0.7,0.5,1s1,0.5,2,0.7c1.6,0.3,2.7,0.8,3.5,1.4s1.1,1.4,1.1,2.5c0,1.1-0.5,2.1-1.5,2.8s-2.3,1.1-3.9,1.1
		c-1.7,0-3-0.4-4-1.3s-1.4-1.8-1.4-2.9l0-0.1h3.1c0,0.7,0.2,1.2,0.7,1.5s1,0.5,1.7,0.5c0.6,0,1.1-0.1,1.4-0.4S35.8,65,35.8,64.6z"/>
	<path class="st5" d="M45.9,63.4l0.2,1.2h0.1l0.2-1.2l2.1-8h3.6l-4.3,12.7h-3.3l-4.3-12.7h3.6L45.9,63.4z"/>
</g>
</svg>
