<?xml version="1.0" encoding="utf-8"?>
<!-- Generator: Adobe Illustrator 19.1.0, SVG Export Plug-In . SVG Version: 6.00 Build 0)  -->
<svg version="1.1" id="Layer_1" xmlns="http://www.w3.org/2000/svg" xmlns:xlink="http://www.w3.org/1999/xlink" x="0px" y="0px"
	 viewBox="-447 249 64 64" style="enable-background:new -447 249 64 64;" xml:space="preserve">
<style type="text/css">
	.st0{fill:none;}
	.st1{fill:#FFFFFF;}
</style>
<g>
	<path class="st0" d="M-399.4,266c-2,0-3.7,1.6-3.7,3.7c0,2,1.6,3.6,3.7,3.6c2,0,3.6-1.6,3.6-3.6C-395.8,267.6-397.4,266-399.4,266z
		"/>
	<path class="st0" d="M-390.5,266.6c-0.1-0.2-0.2-0.4-0.3-0.6c-0.4-0.9-0.3-1.9,0.3-2.7c0.1-0.1,0.2-0.2,0.3-0.3l2.1-2.1l-2.7-2.7
		l-2.1,2.1c-0.8,0.8-1.9,1-3,0.6c-1-0.4-1.7-1.4-1.7-2.5v-3l-3.8,0l0,3c0,1.1-0.6,2.1-1.7,2.5c-1,0.4-2.2,0.2-3-0.6l-2.1-2.1
		l-2.7,2.7l1.2,1.2l0.9,0.9c0.7,0.7,0.9,1.6,0.7,2.5c0,0.2-0.1,0.3-0.1,0.5c-0.4,1-1.4,1.7-2.5,1.7h-3l0,3.8l3,0
		c1.1,0,2.1,0.6,2.5,1.7c0.4,1,0.2,2.2-0.6,3l-1.4,1.4l-0.7,0.7l2.7,2.7l0.6-0.6l1.5-1.5c0.5-0.5,1.2-0.8,1.9-0.8
		c0.4,0,0.7,0.1,1.1,0.2c1,0.4,1.7,1.4,1.7,2.5v3l3.8,0l0-3c0-1.1,0.6-2.1,1.7-2.5c0.7-0.3,1.4-0.3,2,0c0.3,0.1,0.7,0.3,0.9,0.6
		l2.1,2.1l0.3-0.3l2.4-2.3l-2.1-2.1c-0.1-0.1-0.2-0.2-0.3-0.3c-0.6-0.8-0.7-1.8-0.3-2.7c0.1-0.2,0.2-0.4,0.3-0.6
		c0.5-0.7,1.3-1.1,2.2-1.1l3,0v-3.8l-3,0C-389.2,267.7-390,267.3-390.5,266.6z M-393.8,270.5c-0.4,2.7-2.8,4.9-5.6,4.9
		c-3.1,0-5.7-2.6-5.7-5.7c0-1.6,0.6-3,1.7-4.1c1-1,2.4-1.7,4-1.7c1.6,0,3,0.6,4,1.7c0.9,0.8,1.4,2,1.6,3.2c0,0.3,0.1,0.6,0.1,0.8
		C-393.8,269.9-393.8,270.2-393.8,270.5z"/>
	<path class="st0" d="M-443.6,294.7h49.7h0.1v-13.8l-0.5-0.5c-0.2-0.2-0.5-0.3-0.8-0.1c-0.3,0.1-0.4,0.3-0.4,0.6v3
		c0,1.1-0.9,2.1-2.1,2.1h-3.8c-1.1,0-2.1-0.9-2.1-2.1v-3c0-0.3-0.2-0.5-0.4-0.6c-0.3-0.1-0.5-0.1-0.8,0.2l-2.1,2.1
		c-0.7,0.7-1.8,0.8-2.6,0.3c-0.1-0.1-0.2-0.2-0.3-0.3l-2.5-2.5l-0.2-0.2c-0.4-0.4-0.6-0.9-0.6-1.5c0-0.6,0.2-1.1,0.6-1.5l2.1-2.1
		c0.2-0.2,0.3-0.5,0.2-0.8c-0.1-0.3-0.3-0.4-0.6-0.4h-3c-1.1,0-2.1-0.9-2.1-2.1v-3.8c0-1.1,0.9-2.1,2.1-2.1h3c0.1,0,0.3,0,0.4-0.1
		h-33.3V294.7z M-421,277.6h4.5v5.1h-4.5V277.6z M-429.9,277.6h4.5v5.1h-4.5V277.6z"/>
	<rect x="-421" y="277.6" class="st1" width="4.5" height="5.1"/>
	<rect x="-429.9" y="277.6" class="st1" width="4.5" height="5.1"/>
	<rect x="-433.3" y="301.5" class="st1" width="27.4" height="3.4"/>
	<path class="st1" d="M-392.2,282.4l-1.6-1.6v13.8h-0.1h-49.7v-29.1h33.3c0.1-0.1,0.2-0.2,0.3-0.3c0.1-0.3,0.1-0.5-0.1-0.8l-2.1-2.1
		c-0.1-0.1-0.2-0.2-0.2-0.3H-447v36h56.5V283C-391.1,283.1-391.8,282.9-392.2,282.4z"/>
	<path class="st1" d="M-385.3,266.6h-3c-0.6,0-1.2-0.4-1.5-1c-0.2-0.6-0.1-1.3,0.3-1.7l2.1-2.1c0.2-0.2,0.3-0.5,0.3-0.8
		c0-0.3-0.1-0.6-0.3-0.8l-2.7-2.7c-0.4-0.4-1.3-0.4-1.7,0l-2.1,2.1c-0.5,0.5-1.1,0.6-1.7,0.3c-0.6-0.2-1-0.8-1-1.5v-3
		c0-0.7-0.5-1.2-1.2-1.2h-3.8c-0.7,0-1.2,0.5-1.2,1.2v3c0,0.6-0.4,1.2-1,1.5c-0.6,0.2-1.3,0.1-1.7-0.3l-2.1-2.1
		c-0.4-0.4-1.3-0.4-1.7,0l-2.7,2.7c-0.2,0.2-0.3,0.5-0.3,0.8c0,0.3,0.1,0.6,0.3,0.8l0.4,0.4l1.7,1.7c0.5,0.5,0.6,1.1,0.3,1.7
		c0,0,0,0,0,0c-0.2,0.6-0.8,1-1.5,1h-3c-0.7,0-1.2,0.5-1.2,1.2v3.8c0,0.7,0.5,1.2,1.2,1.2h3c0.6,0,1.2,0.4,1.5,1
		c0.2,0.6,0.1,1.3-0.3,1.7l-2.1,2.1c0,0,0,0.1-0.1,0.1c-0.2,0.2-0.3,0.5-0.3,0.7c0,0.3,0.1,0.6,0.3,0.8l2.7,2.7
		c0.4,0.4,0.9,0.4,1.4,0.2c0.1-0.1,0.2-0.1,0.3-0.2l2.1-2.1c0.3-0.3,0.7-0.5,1.1-0.5c0.2,0,0.4,0,0.6,0.1c0.6,0.3,1,0.8,1,1.5v3
		c0,0.7,0.5,1.2,1.2,1.2h3.8c0.7,0,1.2-0.5,1.2-1.2v-3c0-0.6,0.4-1.2,1-1.5c0.6-0.2,1.1-0.1,1.6,0.3c0,0,0.1,0.1,0.1,0.1l2.1,2.1
		c0.3,0.3,0.7,0.4,1.1,0.3c0.2,0,0.4-0.1,0.5-0.3l2.7-2.7c0.2-0.2,0.3-0.5,0.3-0.8c0-0.3-0.1-0.6-0.3-0.8l-2.1-2.1
		c-0.5-0.5-0.6-1.1-0.3-1.7c0.2-0.6,0.8-1,1.5-1h3c0.7,0,1.2-0.5,1.2-1.2v-3.8C-384.1,267.1-384.6,266.6-385.3,266.6z M-384.4,271.5
		c0,0.5-0.4,0.9-0.9,0.9h-3c-0.8,0-1.4,0.4-1.7,1.1c-0.3,0.7-0.1,1.5,0.4,2l2.1,2.1c0.2,0.2,0.3,0.4,0.3,0.6c0,0.2-0.1,0.5-0.3,0.6
		l-2.7,2.7c-0.1,0.1-0.2,0.2-0.3,0.2c-0.1,0-0.2,0.1-0.3,0.1c-0.2,0-0.5-0.1-0.6-0.3l-2.1-2.1c-0.1-0.1-0.2-0.2-0.3-0.2
		c-0.5-0.3-1.1-0.4-1.7-0.2c-0.7,0.3-1.1,1-1.1,1.7v3c0,0.5-0.4,0.9-0.9,0.9h-3.8c-0.5,0-0.9-0.4-0.9-0.9v-3c0-0.8-0.4-1.4-1.1-1.7
		c-0.7-0.3-1.5-0.1-2,0.4l-2.1,2.1c0,0-0.1,0-0.1,0.1c-0.4,0.3-0.9,0.3-1.2-0.1l-2.7-2.7c-0.3-0.4-0.3-0.9,0-1.3l0.1-0.1l2-2
		c0.5-0.5,0.7-1.3,0.4-2c-0.3-0.7-1-1.1-1.7-1.1h-3c-0.5,0-0.9-0.4-0.9-0.9v-3.8c0-0.5,0.4-0.9,0.9-0.9h3c0.8,0,1.4-0.4,1.7-1.1
		c0,0,0-0.1,0-0.1c0.2-0.7,0.1-1.4-0.4-1.9l-1.5-1.5l-0.6-0.6c-0.3-0.4-0.3-0.9,0-1.3l2.7-2.7c0.4-0.3,0.9-0.3,1.3,0l2.1,2.1
		c0.5,0.5,1.3,0.7,2,0.4c0.7-0.3,1.1-1,1.1-1.7v-3c0-0.5,0.4-0.9,0.9-0.9h3.8c0.5,0,0.9,0.4,0.9,0.9v3c0,0.8,0.4,1.4,1.1,1.7
		c0.7,0.3,1.5,0.1,2-0.4l2.1-2.1c0.3-0.3,0.9-0.3,1.3,0l2.7,2.7c0.2,0.2,0.3,0.4,0.3,0.6c0,0.2-0.1,0.5-0.3,0.6l-2.1,2.1
		c-0.5,0.5-0.7,1.3-0.4,2c0.3,0.7,1,1.1,1.7,1.1h3c0.2,0,0.5,0.1,0.6,0.3c0.2,0.2,0.3,0.4,0.3,0.6V271.5z"/>
	<path class="st1" d="M-385.3,265.7h-3c-0.3,0-0.5-0.2-0.6-0.4c-0.1-0.3-0.1-0.6,0.1-0.8l2.1-2.1c0.4-0.4,0.6-0.9,0.6-1.5
		c0-0.5-0.2-1.1-0.6-1.5l-2.7-2.7c-0.7-0.7-2.2-0.7-2.9,0l-2.1,2.1c-0.2,0.2-0.5,0.3-0.8,0.2c-0.3-0.1-0.4-0.3-0.4-0.6v-3
		c0-1.1-0.9-2.1-2.1-2.1h-3.8c-1.1,0-2.1,0.9-2.1,2.1v3c0,0.3-0.2,0.5-0.4,0.6c-0.3,0.1-0.5,0.1-0.8-0.1l-2.1-2.1
		c-0.7-0.7-2.2-0.7-2.9,0l-2.7,2.7c-0.4,0.4-0.6,0.9-0.6,1.5c0,0.4,0.1,0.8,0.4,1.2c0.1,0.1,0.1,0.2,0.2,0.3l2.1,2.1
		c0.2,0.2,0.3,0.5,0.1,0.8c-0.1,0.1-0.2,0.2-0.3,0.3c-0.1,0.1-0.2,0.1-0.4,0.1h-3c-1.1,0-2.1,0.9-2.1,2.1v3.8c0,1.1,0.9,2.1,2.1,2.1
		h3c0.3,0,0.5,0.2,0.6,0.4c0.1,0.3,0.1,0.5-0.2,0.8l-2.1,2.1c-0.4,0.4-0.6,0.9-0.6,1.5c0,0.6,0.2,1.1,0.6,1.5l0.2,0.2l2.5,2.5
		c0.1,0.1,0.2,0.2,0.3,0.3c0.8,0.5,1.9,0.4,2.6-0.3l2.1-2.1c0.2-0.2,0.5-0.3,0.8-0.2c0.3,0.1,0.4,0.3,0.4,0.6v3
		c0,1.1,0.9,2.1,2.1,2.1h3.8c1.1,0,2.1-0.9,2.1-2.1v-3c0-0.3,0.2-0.5,0.4-0.6c0.3-0.1,0.5-0.1,0.8,0.1l0.5,0.5l1.6,1.6
		c0.5,0.5,1.1,0.7,1.8,0.6c0.4-0.1,0.8-0.2,1.2-0.6l2.7-2.7c0.4-0.4,0.6-0.9,0.6-1.5c0-0.5-0.2-1.1-0.6-1.5l-2.1-2.1
		c-0.2-0.2-0.3-0.5-0.1-0.8c0.1-0.3,0.3-0.4,0.6-0.4h3c1.1,0,2.1-0.9,2.1-2.1v-3.8C-383.2,266.6-384.2,265.7-385.3,265.7z
		 M-384.1,271.5c0,0.7-0.5,1.2-1.2,1.2h-3c-0.7,0-1.2,0.4-1.5,1c-0.2,0.6-0.1,1.3,0.3,1.7l2.1,2.1c0.2,0.2,0.3,0.5,0.3,0.8
		c0,0.3-0.1,0.6-0.3,0.8l-2.7,2.7c-0.1,0.1-0.3,0.2-0.5,0.3c-0.4,0.1-0.9,0-1.1-0.3l-2.1-2.1c0,0-0.1-0.1-0.1-0.1
		c-0.5-0.4-1-0.5-1.6-0.3c-0.6,0.3-1,0.8-1,1.5v3c0,0.7-0.5,1.2-1.2,1.2h-3.8c-0.7,0-1.2-0.5-1.2-1.2v-3c0-0.6-0.4-1.2-1-1.5
		c-0.2-0.1-0.4-0.1-0.6-0.1c-0.4,0-0.8,0.2-1.1,0.5l-2.1,2.1c-0.1,0.1-0.2,0.1-0.3,0.2c-0.4,0.2-1,0.2-1.4-0.2l-2.7-2.7
		c-0.2-0.2-0.3-0.5-0.3-0.8c0-0.3,0.1-0.5,0.3-0.7c0,0,0-0.1,0.1-0.1l2.1-2.1c0.5-0.5,0.6-1.1,0.3-1.7c-0.2-0.6-0.8-1-1.5-1h-3
		c-0.7,0-1.2-0.5-1.2-1.2v-3.8c0-0.7,0.5-1.2,1.2-1.2h3c0.7,0,1.2-0.4,1.5-1c0,0,0,0,0,0c0.2-0.6,0.1-1.2-0.3-1.7l-1.7-1.7l-0.4-0.4
		c-0.2-0.2-0.3-0.5-0.3-0.8c0-0.3,0.1-0.6,0.3-0.8l2.7-2.7c0.4-0.4,1.3-0.4,1.7,0l2.1,2.1c0.5,0.5,1.1,0.6,1.7,0.3
		c0.6-0.3,1-0.8,1-1.5v-3c0-0.7,0.5-1.2,1.2-1.2h3.8c0.7,0,1.2,0.5,1.2,1.2v3c0,0.6,0.4,1.2,1,1.5c0.6,0.2,1.3,0.1,1.7-0.3l2.1-2.1
		c0.4-0.4,1.3-0.4,1.7,0l2.7,2.7c0.2,0.2,0.3,0.5,0.3,0.8c0,0.3-0.1,0.6-0.3,0.8l-2.1,2.1c-0.5,0.5-0.6,1.1-0.3,1.7
		c0.3,0.6,0.8,1,1.5,1h3c0.7,0,1.2,0.5,1.2,1.2V271.5z"/>
	<path class="st1" d="M-385.3,266.8h-3c-0.8,0-1.4-0.4-1.7-1.1c-0.3-0.7-0.1-1.5,0.4-2l2.1-2.1c0.2-0.2,0.3-0.4,0.3-0.6
		c0-0.2-0.1-0.5-0.3-0.6l-2.7-2.7c-0.4-0.3-0.9-0.3-1.3,0l-2.1,2.1c-0.5,0.5-1.3,0.7-2,0.4c-0.7-0.3-1.1-1-1.1-1.7v-3
		c0-0.5-0.4-0.9-0.9-0.9h-3.8c-0.5,0-0.9,0.4-0.9,0.9v3c0,0.8-0.4,1.4-1.1,1.7c-0.7,0.3-1.5,0.1-2-0.4l-2.1-2.1
		c-0.3-0.3-0.9-0.3-1.3,0l-2.7,2.7c-0.3,0.3-0.3,0.9,0,1.3l0.6,0.6l1.5,1.5c0.5,0.5,0.7,1.2,0.4,1.9c0,0,0,0.1,0,0.1
		c-0.3,0.7-0.9,1.1-1.7,1.1h-3c-0.5,0-0.9,0.4-0.9,0.9v3.8c0,0.5,0.4,0.9,0.9,0.9h3c0.8,0,1.4,0.4,1.7,1.1c0.3,0.7,0.1,1.5-0.4,2
		l-2,2l-0.1,0.1c-0.3,0.3-0.3,0.9,0,1.3l2.7,2.7c0.3,0.3,0.8,0.3,1.2,0.1c0,0,0.1,0,0.1-0.1l2.1-2.1c0.5-0.5,1.3-0.7,2-0.4
		c0.7,0.3,1.1,1,1.1,1.7v3c0,0.5,0.4,0.9,0.9,0.9h3.8c0.5,0,0.9-0.4,0.9-0.9v-3c0-0.8,0.4-1.4,1.1-1.7c0.6-0.2,1.2-0.2,1.7,0.2
		c0.1,0.1,0.2,0.1,0.3,0.2l2.1,2.1c0.2,0.2,0.4,0.3,0.6,0.3c0.1,0,0.2,0,0.3-0.1c0.1,0,0.2-0.1,0.3-0.2l2.7-2.7
		c0.2-0.2,0.3-0.4,0.3-0.6c0-0.2-0.1-0.5-0.3-0.6l-2.1-2.1c-0.5-0.5-0.7-1.3-0.4-2c0.3-0.7,1-1.1,1.7-1.1h3c0.5,0,0.9-0.4,0.9-0.9
		v-3.8c0-0.2-0.1-0.5-0.3-0.6C-384.8,266.9-385.1,266.8-385.3,266.8z M-385.3,271.5l-3,0c-0.9,0-1.7,0.4-2.2,1.1
		c-0.1,0.2-0.2,0.4-0.3,0.6c-0.4,0.9-0.3,1.9,0.3,2.7c0.1,0.1,0.2,0.2,0.3,0.3l2.1,2.1l-2.4,2.3l-0.3,0.3l-2.1-2.1
		c-0.3-0.3-0.6-0.5-0.9-0.6c-0.6-0.3-1.4-0.3-2,0c-1,0.4-1.7,1.4-1.7,2.5l0,3l-3.8,0v-3c0-1.1-0.6-2.1-1.7-2.5
		c-0.3-0.1-0.7-0.2-1.1-0.2c-0.7,0-1.4,0.3-1.9,0.8l-1.5,1.5l-0.6,0.6l-2.7-2.7l0.7-0.7l1.4-1.4c0.8-0.8,1-1.9,0.6-3
		c-0.4-1-1.4-1.7-2.5-1.7l-3,0l0-3.8h3c1.1,0,2.1-0.6,2.5-1.7c0.1-0.2,0.1-0.3,0.1-0.5c0.2-0.9-0.1-1.8-0.7-2.5l-0.9-0.9l-1.2-1.2
		l2.7-2.7l2.1,2.1c0.8,0.8,1.9,1,3,0.6c1-0.4,1.7-1.4,1.7-2.5l0-3l3.8,0v3c0,1.1,0.6,2.1,1.7,2.5c1,0.4,2.2,0.2,3-0.6l2.1-2.1
		l2.7,2.7l-2.1,2.1c-0.1,0.1-0.2,0.2-0.3,0.3c-0.6,0.8-0.7,1.8-0.3,2.7c0.1,0.2,0.2,0.4,0.3,0.6c0.5,0.7,1.3,1.1,2.2,1.1l3,0V271.5z
		"/>
	<path class="st1" d="M-396.8,265.6c-0.8-0.5-1.6-0.8-2.6-0.8c-1,0-1.9,0.3-2.6,0.8c-1.3,0.9-2.2,2.4-2.2,4.1c0,2.7,2.2,4.8,4.8,4.8
		c2.7,0,4.8-2.2,4.8-4.8C-394.6,267.9-395.5,266.4-396.8,265.6z M-399.4,274.1c-2.5,0-4.5-2-4.5-4.5c0-1.8,1-3.3,2.5-4.1
		c0.6-0.3,1.3-0.5,2-0.5c0.7,0,1.4,0.2,2,0.5c1.5,0.7,2.5,2.3,2.5,4.1C-394.9,272.1-397,274.1-399.4,274.1z"/>
	<path class="st1" d="M-395.4,265.6c-1-1-2.4-1.7-4-1.7c-1.6,0-3,0.6-4,1.7c-1,1-1.7,2.5-1.7,4.1c0,3.1,2.6,5.7,5.7,5.7
		c2.9,0,5.2-2.1,5.6-4.9c0-0.3,0.1-0.6,0.1-0.8c0-0.3,0-0.6-0.1-0.8C-394,267.5-394.6,266.4-395.4,265.6z M-399.4,274.4
		c-2.7,0-4.8-2.2-4.8-4.8c0-1.7,0.9-3.2,2.2-4.1c0.8-0.5,1.6-0.8,2.6-0.8c1,0,1.9,0.3,2.6,0.8c1.3,0.9,2.2,2.4,2.2,4.1
		C-394.6,272.3-396.8,274.4-399.4,274.4z"/>
	<path class="st1" d="M-397.5,265.6c-0.6-0.3-1.3-0.5-2-0.5c-0.7,0-1.4,0.2-2,0.5c-1.5,0.7-2.5,2.3-2.5,4.1c0,2.5,2,4.5,4.5,4.5
		c2.5,0,4.5-2,4.5-4.5C-394.9,267.8-396,266.3-397.5,265.6z M-399.4,273.3c-2,0-3.7-1.6-3.7-3.6c0-2,1.6-3.7,3.7-3.7
		c2,0,3.6,1.6,3.6,3.7C-395.8,271.6-397.4,273.3-399.4,273.3z"/>
</g>
</svg>
