<svg xmlns="http://www.w3.org/2000/svg" xmlns:xlink="http://www.w3.org/1999/xlink" viewBox="0 0 64 64" xml:space="preserve">
<style type="text/css">
	.st0{fill-rule:evenodd;clip-rule:evenodd;fill:#004d7f;}
</style>
<path class="st0" d="M10.8,60l2.8-38.5h6c0,1.9,1.6,3.5,3.5,3.5s3.5-1.6,3.5-3.5h12.2c0,1.9,1.6,3.5,3.5,3.5s3.5-1.6,3.5-3.5h6
	L54.5,60H10.8z M42.2,18.1c-1.3,0-2.4,0.7-3,1.7H26c-0.6-1-1.7-1.7-3-1.7c-1.3,0-2.4,0.7-3,1.7h-6.4l0.2-3.4h7.8v-6.3
	c0-3.3,2.7-6,6-6h9.9c3.3,0,6,2.7,6,6v6.3h7.8l0.2,3.4h-6.4C44.6,18.8,43.5,18.1,42.2,18.1z M40.2,9.7C40.2,8.2,39,7,37.5,7h-9.8
	C26.2,7,25,8.2,25,9.7v6.7h15.2V9.7z"/>
</svg>
