<?xml version="1.0" encoding="utf-8"?>
<!-- Generator: Adobe Illustrator 19.1.0, SVG Export Plug-In . SVG Version: 6.00 Build 0)  -->
<svg version="1.1" id="Layer_1" xmlns="http://www.w3.org/2000/svg" xmlns:xlink="http://www.w3.org/1999/xlink" x="0px" y="0px"
	 viewBox="-447 249 64 64" style="enable-background:new -447 249 64 64;" xml:space="preserve">
<style type="text/css">
	.st0{fill:#FFFFFF;}
</style>
<path class="st0" d="M-436.2,309l2.8-38.5h6c0,1.9,1.6,3.5,3.5,3.5s3.5-1.6,3.5-3.5h12.2c0,1.9,1.6,3.5,3.5,3.5
	c1.9,0,3.5-1.6,3.5-3.5h6l2.7,38.5H-436.2z M-404.8,267.1c-1.3,0-2.4,0.7-3,1.7H-421c-0.6-1-1.7-1.7-3-1.7s-2.4,0.7-3,1.7h-6.4
	l0.2-3.4h7.8v-6.3c0-3.3,2.7-6,6-6h9.9c3.3,0,6,2.7,6,6v6.3h7.8l0.2,3.4h-6.4C-402.4,267.8-403.5,267.1-404.8,267.1z M-406.8,258.7
	c0-1.5-1.2-2.7-2.7-2.7h-9.8c-1.5,0-2.7,1.2-2.7,2.7v6.7h15.2V258.7z"/>
</svg>
