<svg xmlns="http://www.w3.org/2000/svg" xmlns:xlink="http://www.w3.org/1999/xlink" viewBox="0 0 64 64" xml:space="preserve">
<style type="text/css">
	.st0{fill-rule:evenodd;clip-rule:evenodd;fill:#FDFDFD;}
</style>
<path class="st0" d="M57.5,14L46.1,33.8c-0.3,0.6-1.5,1-2.7,1H23.2c-0.3,0-0.7,0-1-0.1l-1.8,2.7c-0.5,1.5,0.1,2.7,0.2,2.9h31.9v5.6
	H19.9v0c-3.5,0-3.2,0.4-5.6-2.8c-2.6-3.3,2.1-9.7,2.1-9.7s0,0,0,0l2.1-3.2L9.8,14c0,0,0,0,0,0l-2.2-4H2.6V4.3h9v0.1l2.4,5.5h41.2
	C57.8,9.9,58.8,11.8,57.5,14z M19.2,48.7c3,0,5.5,2.5,5.5,5.5c0,3-2.5,5.5-5.5,5.5c-3,0-5.5-2.5-5.5-5.5
	C13.7,51.2,16.2,48.7,19.2,48.7z M46.9,48.7c3.1,0,5.6,2.5,5.6,5.5c0,3-2.5,5.5-5.6,5.5c-3.1,0-5.6-2.5-5.6-5.5
	C41.3,51.2,43.8,48.7,46.9,48.7z"/>
</svg>
