<svg xmlns="http://www.w3.org/2000/svg" xmlns:xlink="http://www.w3.org/1999/xlink" viewBox="0 0 64 64" xml:space="preserve">
<style type="text/css">
	.st0{display:none;}
	.st1{display:inline;fill-rule:evenodd;clip-rule:evenodd;fill:#EEEEEE;}
	.st2{display:inline;fill-rule:evenodd;clip-rule:evenodd;fill:#333333;}
	.st3{display:inline;fill-rule:evenodd;clip-rule:evenodd;fill:#D9EEFB;}
	.st4{display:inline;fill-rule:evenodd;clip-rule:evenodd;fill:#054F7E;}
	.st5{fill-rule:evenodd;clip-rule:evenodd;fill:#FFFFFF;}
</style>
<g class="st0">
	<path class="st1" d="M32,1.9c16.6,0,30,13.5,30,30.1S48.6,62.1,32,62.1S2,48.6,2,32S15.4,1.9,32,1.9z"/>
	<path class="st2" d="M45.1,42.3l-2.9,2.9L32,34.9L21.8,45.2l-2.9-2.9L29.1,32L18.9,21.7l2.9-2.9L32,29.1l10.2-10.3l2.9,2.9L34.9,32
		L45.1,42.3z"/>
</g>
<g class="st0">
	<path class="st3" d="M32,1.9c16.6,0,30,13.5,30,30.1S48.6,62.1,32,62.1S2,48.6,2,32S15.4,1.9,32,1.9z"/>
	<path class="st4" d="M45.1,42.3l-2.9,2.9L32,34.9L21.8,45.2l-2.9-2.9L29.1,32L18.9,21.7l2.9-2.9L32,29.1l10.2-10.3l2.9,2.9L34.9,32
		L45.1,42.3z"/>
</g>
<path class="st5" d="M52.3,36.3v23.5h-16V38.4H21.3v21.3h-9.6V36.3H2.1L32,4.2l10.7,11.4V8.5h8.5v16.3l10.7,11.4H52.3z"/>
</svg>
