<?xml version="1.0" encoding="utf-8"?>
<!-- Generator: Adobe Illustrator 19.1.0, SVG Export Plug-In . SVG Version: 6.00 Build 0)  -->
<svg version="1.1" id="Layer_1" xmlns="http://www.w3.org/2000/svg" xmlns:xlink="http://www.w3.org/1999/xlink" x="0px" y="0px"
	 viewBox="-447 249 64 64" style="enable-background:new -447 249 64 64;" xml:space="preserve">
<style type="text/css">
	.st0{fill:#004D7F;}
</style>
<g>
	<polygon class="st0" points="-424.6,303.4 -423.5,308.5 -436.3,304.4 -426.4,295.4 -425.3,300.5 -394.2,293.8 -394.8,285 
		-404.7,293.9 -405.8,288.9 -435.9,295.4 -436.9,308.9 -393.1,308.9 -394,296.9 	"/>
	<path class="st0" d="M-424.6,267c1.3,0,2.4,0.7,3,1.7h13.2c0.6-1,1.7-1.7,3-1.7s2.4,0.7,2.9,1.7h6.4l-0.2-3.4h-7.8v-6.3
		c0-3.3-2.7-6-6-6h-9.9c-3.3,0-6,2.7-6,6v6.3h-7.8l-0.2,3.4h6.4C-427,267.8-425.9,267-424.6,267z M-422.6,258.6
		c0-1.5,1.2-2.7,2.7-2.7h9.8c1.5,0,2.7,1.2,2.7,2.7v6.7h-15.2V258.6z"/>
	<path class="st0" d="M-407.5,280.8l12.7,4.1l-1-14.4h-6c0,1.9-1.6,3.5-3.5,3.5s-3.5-1.6-3.5-3.5H-421c0,1.9-1.6,3.5-3.5,3.5
		s-3.5-1.6-3.5-3.5h-6l-1.6,21.8l29.2-6.3L-407.5,280.8z"/>
	<polygon class="st0" points="-394.7,284.9 -394.8,284.9 -394.8,285 	"/>
</g>
</svg>
