<?xml version="1.0" encoding="utf-8"?>
<!-- Generator: Adobe Illustrator 19.1.0, SVG Export Plug-In . SVG Version: 6.00 Build 0)  -->
<svg version="1.1" id="Layer_1" xmlns="http://www.w3.org/2000/svg" xmlns:xlink="http://www.w3.org/1999/xlink" x="0px" y="0px"
	 viewBox="0 0 108.5 109.6" style="enable-background:new 0 0 108.5 109.6;" xml:space="preserve">
<style type="text/css">
	.st0{fill:#FFFFFF;stroke:#308ECC;stroke-linecap:round;stroke-linejoin:round;stroke-miterlimit:10;}
	.st1{fill:#FFFFFF;stroke:#308ECC;stroke-width:20;stroke-linecap:round;stroke-linejoin:round;stroke-miterlimit:10;}
	.st2{fill:#308ECC;stroke:#308ECC;stroke-width:20;stroke-linecap:round;stroke-linejoin:round;stroke-miterlimit:10;}
	.st3{fill:#308ECC;}
	.st4{fill:none;stroke:#308ECC;stroke-width:13;stroke-miterlimit:10;}
	.st5{fill:#308ECC;stroke:#FFFFFF;stroke-width:10;stroke-miterlimit:10;}
	.st6{fill:none;}
	.st7{fill:#308ECC;stroke:#FFFFFF;stroke-width:5;stroke-miterlimit:10;}
	.st8{fill:#FFFFFF;}
	.st9{fill:#BDBDBD;}
	.st10{fill:none;stroke:#308ECC;stroke-width:5;stroke-linecap:round;stroke-linejoin:round;stroke-miterlimit:10;}
	.st11{fill:none;stroke:#BDBDBD;stroke-width:10;stroke-linecap:round;stroke-linejoin:round;stroke-miterlimit:10;}
	.st12{fill:#BDBDBD;stroke:#FFFFFF;stroke-width:5;stroke-miterlimit:10;}
	.st13{fill:none;stroke:#BDBDBD;stroke-width:10;stroke-miterlimit:10;}
    @keyframes dash {
        from {
    stroke-dashoffset: 1000;
  }
  to {
    stroke-dashoffset: 0;
  }
    }

    
    .st0, .st1, .st2, .st3{
    stroke: #308ECC;
    stroke-width: 2px;
    stroke-dasharray: 1000;
    stroke-dashoffset: 1000;
    animation: dash 5s linear alternate infinite;
    }
</style>
<g>
	<path class="st6" d="M54.2,43.5c6.2,0,11.3-5.1,11.3-11.3c0-6.2-5.1-11.3-11.3-11.3S43,26,43,32.2C43,38.5,48,43.5,54.2,43.5z
		 M54.2,27c2.9,0,5.2,2.3,5.2,5.2c0,2.9-2.3,5.2-5.2,5.2S49,35.1,49,32.2C49,29.3,51.4,27,54.2,27z"/>
	<path class="st3" d="M65.8,90c-3.1,3.1-7.2,4.8-11.5,4.8s-8.5-1.7-11.5-4.8c-2.3-2.3-4.3-4.7-6.1-7.2c-0.2,0-0.4-0.1-0.5-0.1V94
		c0,2.2,2.6,3.3,4.2,1.8l0.8-0.8c1.1-1.1,3-0.9,3.8,0.5l7.9,12.8c1,1.6,3.3,1.6,4.2,0l7.4-12.1c0.8-1.3,2.7-1.6,3.8-0.5
		c0.5,0.5,1.1,0.7,1.7,0.7c1.3,0,2.5-1,2.5-2.5V82.8c-0.2,0-0.4,0.1-0.5,0.1C70.1,85.4,68.1,87.8,65.8,90z"/>
	<circle class="st3" cx="54.2" cy="32.2" r="5.2"/>
	<path class="st3" d="M85.7,57.7l-2.7-3.1L81,52.3L79,50c0.6-15-4.8-30.3-16.2-41.7l-8.1-8.1C54.5,0.1,54.4,0,54.2,0
		c-0.1,0-0.3,0.1-0.4,0.2l-8.1,8.1C34.3,19.7,28.9,35,29.5,50l-2,2.3l-1.9,2.2l-2.7,3.1c-2.2,2.5-3,6.1-2,9.3l2.8,4.6
		c0.5,0.8,0.8,1.6,0.9,2.5l0.8,5c0.3,2.1,2.9,2.9,4.4,1.5l3.3-3.2l1.6-1.5l1.6-1.5c1.8,3.3,3.9,6.4,6.4,9.3c1,1.2,2,2.3,3.1,3.4
		c2.3,2.3,5.3,3.5,8.5,3.5s6.2-1.3,8.5-3.5h0c1.1-1.1,2.1-2.2,3.1-3.4c2.5-2.9,4.6-6.1,6.4-9.3l1.6,1.5l1.6,1.5l3.3,3.2
		c1.5,1.5,4.1,0.6,4.4-1.5l0.8-5c0.1-0.9,0.4-1.7,0.9-2.5l2.8-4.6C88.6,63.7,87.9,60.2,85.7,57.7z M54.2,20.9
		c6.2,0,11.3,5.1,11.3,11.3c0,6.2-5.1,11.3-11.3,11.3S43,38.5,43,32.2C43,26,48,20.9,54.2,20.9z"/>
</g>
</svg>
