<?xml version="1.0" encoding="utf-8"?>
<!-- Generator: Adobe Illustrator 19.1.0, SVG Export Plug-In . SVG Version: 6.00 Build 0)  -->
<svg version="1.1" id="Layer_1" xmlns="http://www.w3.org/2000/svg" xmlns:xlink="http://www.w3.org/1999/xlink" x="0px" y="0px"
	 viewBox="0 0 108.5 109.6" style="enable-background:new 0 0 108.5 109.6;" xml:space="preserve">
<style type="text/css">
	.st0{fill:#FFFFFF;stroke:#308ECC;stroke-linecap:round;stroke-linejoin:round;stroke-miterlimit:10;}
	.st1{fill:#FFFFFF;stroke:#308ECC;stroke-width:20;stroke-linecap:round;stroke-linejoin:round;stroke-miterlimit:10;}
	.st2{fill:#308ECC;stroke:#308ECC;stroke-width:20;stroke-linecap:round;stroke-linejoin:round;stroke-miterlimit:10;}
	.st3{fill:none;}
	.st4{fill:none;stroke:#308ECC;stroke-width:13;stroke-miterlimit:10;}
	.st5{fill:#308ECC;stroke:#FFFFFF;stroke-width:10;stroke-miterlimit:10;}
	.st6{fill:none;}
	.st7{fill:#308ECC;stroke:#FFFFFF;stroke-width:5;stroke-miterlimit:10;}
	.st8{fill:#FFFFFF;}
	.st9{fill:#BDBDBD;}
	.st10{fill:none;stroke:#308ECC;stroke-width:5;stroke-linecap:round;stroke-linejoin:round;stroke-miterlimit:10;}
	.st11{fill:none;stroke:#BDBDBD;stroke-width:10;stroke-linecap:round;stroke-linejoin:round;stroke-miterlimit:10;}
	.st12{fill:#BDBDBD;stroke:#FFFFFF;stroke-width:5;stroke-miterlimit:10;}
	.st13{fill:none;stroke:#BDBDBD;stroke-width:10;stroke-miterlimit:10;}
    @keyframes dash {
        from {
    stroke-dashoffset: 1000;
  }
  to {
    stroke-dashoffset: 0;
  }
    }

    
    .icon-software{
    stroke: #308ECC;
    stroke-width: 2px;
    stroke-dasharray: 1000;
    stroke-dashoffset: 1000;
    animation: dash 5s linear alternate infinite;
    }
</style>
<path class="st3 icon-software" d="M54.2,23.2c-8.6,0-15.5,7-15.5,15.5c0,8.6,7,15.5,15.5,15.5c8.6,0,15.5-7,15.5-15.5
	C69.8,30.2,62.8,23.2,54.2,23.2z M54.2,44.7c-3.3,0-6-2.7-6-6s2.7-6,6-6c3.3,0,6,2.7,6,6S57.6,44.7,54.2,44.7z"/>
<path  class="st3 icon-software" d="M102.7,46.4c0-0.2,0-0.4,0-0.5c0,0,0-0.1,0-0.1c0-0.1,0-0.3-0.1-0.4c0-0.1,0-0.1,0-0.2c0-0.1-0.1-0.2-0.1-0.4
	c0,0,0-0.1-0.1-0.1c-0.1-0.2-0.1-0.3-0.2-0.5c-0.1-0.2-0.2-0.3-0.3-0.5c0,0,0-0.1-0.1-0.1c-0.1-0.1-0.2-0.2-0.3-0.3
	c0,0-0.1-0.1-0.1-0.1c-0.1-0.1-0.2-0.2-0.3-0.3c0,0-0.1-0.1-0.1-0.1c-0.1-0.1-0.2-0.2-0.4-0.3c0,0,0,0-0.1,0c0,0,0,0,0,0
	c0,0,0,0,0,0l-7.1-4.6c-0.2-0.1-0.3-0.2-0.5-0.3C92.3,16.7,75.2,0,54.2,0s-38,16.7-38.7,37.5c-0.2,0.1-0.3,0.2-0.5,0.3L8,42.4
	c0,0,0,0,0,0c0,0,0,0,0,0c0,0,0,0-0.1,0c-0.1,0.1-0.3,0.2-0.4,0.3c0,0-0.1,0.1-0.1,0.1c-0.1,0.1-0.2,0.2-0.3,0.3
	c0,0-0.1,0.1-0.1,0.1c-0.1,0.1-0.2,0.2-0.3,0.3c0,0,0,0.1-0.1,0.1c-0.1,0.1-0.2,0.3-0.3,0.5c-0.1,0.2-0.2,0.3-0.2,0.5
	c0,0,0,0.1-0.1,0.1C6.1,44.9,6,45,6,45.1c0,0.1,0,0.1,0,0.2c0,0.1-0.1,0.3-0.1,0.4c0,0,0,0.1,0,0.1c0,0.2,0,0.4,0,0.5c0,0,0,0,0,0
	v39.9c0,1.9,1.1,3.6,2.9,4.4l43.6,18.5c0.2,0.1,0.3,0.1,0.5,0.2c0,0,0.1,0,0.1,0c0.2,0,0.4,0.1,0.5,0.1c0.1,0,0.1,0,0.2,0
	c0.2,0,0.4,0,0.6,0h0h0c0.2,0,0.4,0,0.6,0c0.1,0,0.1,0,0.2,0c0.2,0,0.4-0.1,0.5-0.1c0,0,0.1,0,0.1,0c0.2,0,0.3-0.1,0.5-0.2
	l43.6-18.5c1.8-0.7,2.9-2.5,2.9-4.4L102.7,46.4C102.7,46.4,102.7,46.4,102.7,46.4z M49.5,72.4v4.8v20.5L15.4,83.2V53.6l3.8,1.6
	l7.3,3.1l12.4,5.2l8.4,3.5l2.3,1V72.4z M81.9,48L54.2,59.7L26.6,48c-1-2.9-1.5-6-1.5-9.2c0-16.1,13.1-29.2,29.2-29.2
	c16.1,0,29.2,13.1,29.2,29.2C83.4,42,82.9,45.1,81.9,48z"/>
</svg>
