<?xml version="1.0" encoding="utf-8"?>
<!-- Generator: Adobe Illustrator 19.1.0, SVG Export Plug-In . SVG Version: 6.00 Build 0)  -->
<svg version="1.1" id="Layer_1" xmlns="http://www.w3.org/2000/svg" xmlns:xlink="http://www.w3.org/1999/xlink" x="0px" y="0px"
	 viewBox="-470.8 269.7 18.8 22.3" style="enable-background:new -470.8 269.7 18.8 22.3;" xml:space="preserve">
<style type="text/css">
	.st0{fill:#004D7F;}
</style>
<g>
	<path class="st0" d="M-467.9,278.2h11.8c0.3,0,0.5-0.2,0.5-0.5s-0.2-0.5-0.5-0.5h-11.8c-0.3,0-0.5,0.2-0.5,0.5
		S-468.2,278.2-467.9,278.2z"/>
	<path class="st0" d="M-453.6,281.9v-7.5v-0.9c0-2.1-1.7-3.8-3.8-3.8h-0.9h-12c-0.3,0-0.5,0.2-0.5,0.5v21.3c0,0.3,0.2,0.5,0.5,0.5
		h12.1c0.1,0,0.2,0,0.3,0s0.2,0,0.3,0h3.5c0.3,0,0.5-0.2,0.5-0.5v-1.4c1-1.1,1.6-2.5,1.6-4.1C-452,284.4-452.6,283-453.6,281.9z
		 M-457.7,270.7h0.4c1.5,0,2.8,1.2,2.8,2.8v0.4h-3.2V270.7z M-469.8,291v-20.3h11.1v3.7c0,0.3,0.2,0.5,0.5,0.5h3.7v6.2
		c-1-0.7-2.1-1-3.4-1c-0.7,0-1.3,0.1-1.9,0.3h-8.1c-0.3,0-0.5,0.2-0.5,0.5c0,0.3,0.2,0.5,0.5,0.5h6.2c-0.6,0.5-1.2,1.1-1.6,1.9h-4.6
		c-0.3,0-0.5,0.2-0.5,0.5c0,0.3,0.2,0.5,0.5,0.5h4.2c-0.2,0.6-0.3,1.2-0.3,1.8c0,2.1,1.1,3.9,2.7,5h-8.5V291z M-454.6,291
		L-454.6,291L-454.6,291L-454.6,291z M-457.9,291c-2.8,0-5-2.2-5-5c0-2.8,2.2-5,5-5c2.8,0,5,2.2,5,5
		C-452.9,288.8-455.2,291-457.9,291z"/>
	<path class="st0" d="M-454.7,285.5h-2.8v-2.8c0-0.3-0.2-0.5-0.5-0.5c-0.3,0-0.5,0.2-0.5,0.5v2.8h-2.7c-0.3,0-0.5,0.2-0.5,0.5
		c0,0.3,0.2,0.5,0.5,0.5h2.8v2.8c0,0.3,0.2,0.5,0.5,0.5c0.3,0,0.5-0.2,0.5-0.5v-2.8h2.8c0.3,0,0.5-0.2,0.5-0.5
		C-454.1,285.7-454.4,285.5-454.7,285.5z"/>
</g>
</svg>
