<?xml version="1.0" encoding="utf-8"?>
<!-- Generator: Adobe Illustrator 19.1.0, SVG Export Plug-In . SVG Version: 6.00 Build 0)  -->
<svg version="1.1" id="Layer_1" xmlns="http://www.w3.org/2000/svg" xmlns:xlink="http://www.w3.org/1999/xlink" x="0px" y="0px"
	 viewBox="0 0 13.1 9.2" style="enable-background:new 0 0 13.1 9.2;" xml:space="preserve">
<style type="text/css">
	.st0{fill:none;stroke:#333333;stroke-width:2;stroke-miterlimit:10;}
	.st1{fill:#FFFFFF;}
	.st2{fill:none;stroke:#333333;stroke-linecap:round;stroke-linejoin:round;stroke-miterlimit:10;}
	.st3{fill:#FFFFFF;stroke:#333333;stroke-linecap:round;stroke-linejoin:round;stroke-miterlimit:10;}
	.st4{fill:#FFFFFF;stroke:#3FA9F5;stroke-width:3;stroke-miterlimit:10;}
	.st5{fill:none;stroke:#000000;stroke-width:3;stroke-miterlimit:10;}
	.st6{fill:none;stroke:#FFFFFF;stroke-width:3;stroke-miterlimit:10;}
	.st7{fill:none;stroke:#000000;stroke-width:2;stroke-miterlimit:10;}
	.st8{fill:none;stroke:#FFFFFF;stroke-width:2;stroke-miterlimit:10;}
	.st9{fill:none;stroke:#000000;stroke-linecap:round;stroke-linejoin:round;stroke-miterlimit:10;}
	.st10{fill:#FFFFFF;stroke:#000000;stroke-linecap:round;stroke-linejoin:round;stroke-miterlimit:10;}
	.st11{fill:#1A1A1A;}
	.st12{fill:#333333;}
	.st13{fill:#FAFAFA;stroke:#000000;stroke-linecap:round;stroke-linejoin:round;stroke-miterlimit:10;}
	.st14{fill:none;stroke:#546E7A;stroke-linecap:round;stroke-linejoin:round;stroke-miterlimit:10;}
	.st15{fill:#FFFFFF;stroke:#546E7A;stroke-linecap:round;stroke-linejoin:round;stroke-miterlimit:10;}
	.st16{fill:none;stroke:#4D4D4D;stroke-linecap:round;stroke-linejoin:round;stroke-miterlimit:10;}
	.st17{fill:#FFFFFF;stroke:#4D4D4D;stroke-linecap:round;stroke-linejoin:round;stroke-miterlimit:10;}
	.st18{fill:none;stroke:#42A5F5;stroke-linecap:round;stroke-linejoin:round;stroke-miterlimit:10;}
	.st19{fill:#FFFFFF;stroke:#42A5F5;stroke-linecap:round;stroke-linejoin:round;stroke-miterlimit:10;}
	.st20{fill:#FFFFFF;stroke:#42A5F5;stroke-width:0.75;stroke-linecap:round;stroke-linejoin:round;stroke-miterlimit:10;}
	.st21{fill:none;stroke:#42A5F5;stroke-linecap:round;stroke-linejoin:round;}
	.st22{fill:#42A5F5;}
	.st23{fill:none;stroke:#FFAB40;stroke-linecap:round;stroke-linejoin:round;}
	.st24{fill:#FFAB40;}
	.st25{fill:none;stroke:#FFAB40;stroke-linecap:round;stroke-linejoin:round;stroke-miterlimit:10;}
	.st26{fill:#FFFFFF;stroke:#FFAB40;stroke-linecap:round;stroke-linejoin:round;stroke-miterlimit:10;}
	.st27{fill:none;stroke:#CE93D8;stroke-linecap:round;stroke-linejoin:round;stroke-miterlimit:10;}
	.st28{fill:#FFFFFF;stroke:#CE93D8;stroke-linecap:round;stroke-linejoin:round;stroke-miterlimit:10;}
	.st29{fill:none;stroke:#CE93D8;stroke-width:0.75;stroke-linecap:round;stroke-linejoin:round;stroke-dasharray:1.4016,2.8031;}
	.st30{fill:none;stroke:#CE93D8;stroke-linecap:round;stroke-linejoin:round;}
	.st31{fill:#CE93D8;}
	.st32{fill:#FFFFFF;stroke:#CE93D8;stroke-width:0.75;stroke-linecap:round;stroke-linejoin:round;stroke-miterlimit:10;}
	.st33{fill:none;stroke:#66BB6A;stroke-linecap:round;stroke-linejoin:round;stroke-miterlimit:10;}
	.st34{fill:#FFFFFF;stroke:#66BB6A;stroke-linecap:round;stroke-linejoin:round;stroke-miterlimit:10;}
	.st35{fill:#FFFFFF;stroke:#66BB6A;stroke-width:0.75;stroke-linecap:round;stroke-linejoin:round;stroke-miterlimit:10;}
	.st36{fill:none;stroke:#66BB6A;stroke-linecap:round;stroke-linejoin:round;}
	.st37{fill:#66BB6A;}
	.st38{fill:none;stroke:#66BB6A;stroke-width:0.75;stroke-linecap:round;stroke-linejoin:round;stroke-miterlimit:10;}
	.st39{fill:none;stroke:#FF8A80;stroke-linecap:round;stroke-linejoin:round;stroke-miterlimit:10;}
	.st40{fill:#FFFFFF;stroke:#FF8A80;stroke-width:0.75;stroke-linecap:round;stroke-linejoin:round;stroke-miterlimit:10;}
	.st41{fill:none;stroke:#FF8A80;stroke-linecap:round;stroke-linejoin:round;}
	.st42{fill:#FF8A80;}
	.st43{fill:none;stroke:#FF8A80;stroke-width:0.75;stroke-linecap:round;stroke-linejoin:round;stroke-miterlimit:10;}
	.st44{fill:#FAFAFA;stroke:#FF8A80;stroke-linecap:round;stroke-linejoin:round;stroke-miterlimit:10;}
	.st45{fill:#FFFFFF;stroke:#FF8A80;stroke-linecap:round;stroke-linejoin:round;stroke-miterlimit:10;}
	.st46{fill:#E57373;}
	.st47{fill:#0288D1;}
	.st48{fill:#FBC02D;}
	.st49{fill:#40C4FF;}
	.st50{fill:#827717;}
	.st51{fill:#00897B;}
	.st52{fill:#FF8A65;}
	.st53{fill:#546E7A;}
	.st54{fill:none;}
	.st55{fill:#FAFAFA;}
	.st56{fill:#004D7F;}
	.st57{fill:#808080;}
	.st58{fill:#1B5E20;}
	.st59{fill:#FF00FF;}
	.st60{fill:#CCCCCC;}
	.st61{fill:#999999;}
	.st62{fill:none;stroke:#333333;stroke-linecap:round;stroke-linejoin:round;}
	.st63{fill:#FFFFFF;stroke:#1A1A1A;stroke-width:0.75;stroke-linecap:round;stroke-linejoin:round;stroke-miterlimit:10;}
	.st64{fill:none;stroke:#333333;stroke-linejoin:bevel;}
	.st65{fill:none;stroke:#1A1A1A;stroke-width:0.75;stroke-linecap:round;stroke-linejoin:round;stroke-miterlimit:10;}
	.st66{fill:#FFFFFF;stroke:#333333;stroke-linejoin:bevel;stroke-miterlimit:10;}
	.st67{fill:#FAFAFA;stroke:#1A1A1A;stroke-width:0.75;stroke-linecap:round;stroke-linejoin:round;stroke-miterlimit:10;}
	.st68{fill:#FFFFFF;stroke:#1A1A1A;stroke-linecap:round;stroke-linejoin:round;stroke-miterlimit:10;}
	.st69{fill:#FAFAFA;stroke:#333333;stroke-width:0.75;stroke-linecap:round;stroke-linejoin:round;stroke-miterlimit:10;}
	.st70{fill:#FFFFFF;stroke:#333333;stroke-width:0.75;stroke-linecap:round;stroke-linejoin:round;stroke-miterlimit:10;}
	.st71{fill:none;stroke:#333333;stroke-width:0.75;stroke-linecap:round;stroke-linejoin:round;stroke-miterlimit:10;}
	.st72{fill:#333333;stroke:#333333;stroke-linejoin:bevel;stroke-miterlimit:10;}
	.st73{fill:#9B59B6;}
	.st74{fill:#FFAA3F;}
	.st75{fill:#308ECC;}
	.st76{fill:#FF8966;}
	.st77{fill:#66BA6B;}
	.st78{fill:#FAA61A;}
	.st79{fill:none;stroke:#000000;stroke-miterlimit:10;}
	.st80{fill:#0071BC;}
	.st81{fill:#FFFFFF;stroke:#000000;stroke-miterlimit:10;}
	.st82{fill:#FFFFFF;stroke:#000000;stroke-width:3;stroke-miterlimit:10;}
	.st83{fill:#ACACAC;}
	.st84{fill:#BDBDBD;}
	.st85{fill:#373737;}
	.st86{fill:none;stroke:#000000;stroke-linecap:round;stroke-linejoin:round;}
	.st87{fill:#FFFFFF;stroke:#4D4D4D;stroke-width:0.75;stroke-linecap:round;stroke-linejoin:round;stroke-miterlimit:10;}
	.st88{fill:none;stroke:#4D4D4D;stroke-linecap:round;stroke-linejoin:round;}
	.st89{fill:#4D4D4D;}
	.st90{fill:#FFFFFF;stroke:#000000;stroke-width:0.5;stroke-miterlimit:10;}
</style>
<g>
	<path class="st46" d="M3.2,4H1.9C1.8,4,1.7,4.1,1.7,4.2c0,0.1,0.1,0.2,0.2,0.2h1.3c0.1,0,0.2-0.1,0.2-0.2C3.4,4.1,3.3,4,3.2,4z"/>
	<path class="st46" d="M5.1,4H3.8C3.7,4,3.6,4.1,3.6,4.2c0,0.1,0.1,0.2,0.2,0.2h1.3c0.1,0,0.2-0.1,0.2-0.2C5.3,4.1,5.2,4,5.1,4z"/>
	<path class="st46" d="M3.2,5.5H1.9c-0.1,0-0.2,0.1-0.2,0.2c0,0.1,0.1,0.2,0.2,0.2h1.3c0.1,0,0.2-0.1,0.2-0.2
		C3.4,5.6,3.3,5.5,3.2,5.5z"/>
	<path class="st46" d="M7.2,5.7c0-0.1-0.1-0.2-0.2-0.2H5.7c-0.1,0-0.2,0.1-0.2,0.2c0,0.1,0.1,0.2,0.2,0.2H7C7.1,5.9,7.2,5.8,7.2,5.7
		z"/>
	<path class="st46" d="M3.2,7.1H1.9c-0.1,0-0.2,0.1-0.2,0.2c0,0.1,0.1,0.2,0.2,0.2h1.3c0.1,0,0.2-0.1,0.2-0.2
		C3.4,7.2,3.3,7.1,3.2,7.1z"/>
	<path class="st46" d="M5.1,7.1H3.8c-0.1,0-0.2,0.1-0.2,0.2c0,0.1,0.1,0.2,0.2,0.2h1.3c0.1,0,0.2-0.1,0.2-0.2
		C5.3,7.2,5.2,7.1,5.1,7.1z"/>
	<path class="st46" d="M13.1,7.9l-2.3-3.5v-2V1c0-0.1-0.1-0.2-0.2-0.2H8.9V0.2C8.9,0.1,8.8,0,8.7,0H7.8C7.6,0,7.5,0.1,7.5,0.2v0.5
		H3.1V0.2C3.1,0.1,3,0,2.8,0H1.9C1.8,0,1.7,0.1,1.7,0.2v0.5H0.2C0.1,0.7,0,0.8,0,1v1.4V9c0,0.1,0.1,0.2,0.2,0.2h10.3
		c0.1,0,0.2-0.1,0.2-0.2V8.2h2.1c0.1,0,0.2,0,0.2-0.1C13.1,8,13.1,7.9,13.1,7.9z M8,0.4h0.5v0.3H8V0.4z M2.1,0.4h0.5v0.3H2.1V0.4z
		 M0.4,1.2h1.5h0.9h4.9h0.9h1.6v0.9H0.4V1.2z M10.3,2.6v1.1L9.7,2.6c0,0-0.1-0.1-0.1-0.1H10.3z M10.3,8.8H0.4V2.6h9
		c0,0-0.1,0-0.1,0.1L8.4,4H7.6C7.5,4,7.4,4.1,7.4,4.2c0,0.1,0.1,0.2,0.2,0.2h0.5L5.9,7.9c0,0.1,0,0.2,0,0.2c0,0.1,0.1,0.1,0.2,0.1
		h4.3V8.8z M6.5,7.8l3-4.6l3,4.6H6.5z"/>
	<circle class="st46" cx="9.5" cy="6.9" r="0.4"/>
	<path class="st46" d="M9.3,4.3V6c0,0.1,0.1,0.2,0.2,0.2c0.1,0,0.2-0.1,0.2-0.2V4.3c0-0.1-0.1-0.2-0.2-0.2C9.4,4.1,9.3,4.2,9.3,4.3z
		"/>
</g>
</svg>
