<?xml version="1.0" encoding="utf-8"?>
<!-- Generator: Adobe Illustrator 19.1.0, SVG Export Plug-In . SVG Version: 6.00 Build 0)  -->
<svg version="1.1" id="Layer_1" xmlns="http://www.w3.org/2000/svg" xmlns:xlink="http://www.w3.org/1999/xlink" x="0px" y="0px"
	 viewBox="0 0 18.9 22.4" style="enable-background:new 0 0 18.9 22.4;" xml:space="preserve">
<style type="text/css">
	.st0{fill:none;stroke:#333333;stroke-width:2;stroke-miterlimit:10;}
	.st1{fill:#FFFFFF;}
	.st2{fill:none;stroke:#333333;stroke-linecap:round;stroke-linejoin:round;stroke-miterlimit:10;}
	.st3{fill:#FFFFFF;stroke:#333333;stroke-linecap:round;stroke-linejoin:round;stroke-miterlimit:10;}
	.st4{fill:#FFFFFF;stroke:#3FA9F5;stroke-width:3;stroke-miterlimit:10;}
	.st5{fill:none;stroke:#000000;stroke-width:3;stroke-miterlimit:10;}
	.st6{fill:none;stroke:#FFFFFF;stroke-width:3;stroke-miterlimit:10;}
	.st7{fill:none;stroke:#000000;stroke-width:2;stroke-miterlimit:10;}
	.st8{fill:none;stroke:#FFFFFF;stroke-width:2;stroke-miterlimit:10;}
	.st9{fill:none;stroke:#000000;stroke-linecap:round;stroke-linejoin:round;stroke-miterlimit:10;}
	.st10{fill:#FFFFFF;stroke:#000000;stroke-linecap:round;stroke-linejoin:round;stroke-miterlimit:10;}
	.st11{fill:#1A1A1A;}
	.st12{fill:#333333;}
	.st13{fill:#FAFAFA;stroke:#000000;stroke-linecap:round;stroke-linejoin:round;stroke-miterlimit:10;}
	.st14{fill:none;stroke:#546E7A;stroke-linecap:round;stroke-linejoin:round;stroke-miterlimit:10;}
	.st15{fill:#FFFFFF;stroke:#546E7A;stroke-linecap:round;stroke-linejoin:round;stroke-miterlimit:10;}
	.st16{fill:none;stroke:#4D4D4D;stroke-linecap:round;stroke-linejoin:round;stroke-miterlimit:10;}
	.st17{fill:#FFFFFF;stroke:#4D4D4D;stroke-linecap:round;stroke-linejoin:round;stroke-miterlimit:10;}
	.st18{fill:none;stroke:#42A5F5;stroke-linecap:round;stroke-linejoin:round;stroke-miterlimit:10;}
	.st19{fill:#FFFFFF;stroke:#42A5F5;stroke-linecap:round;stroke-linejoin:round;stroke-miterlimit:10;}
	.st20{fill:#FFFFFF;stroke:#42A5F5;stroke-width:0.75;stroke-linecap:round;stroke-linejoin:round;stroke-miterlimit:10;}
	.st21{fill:none;stroke:#42A5F5;stroke-linecap:round;stroke-linejoin:round;}
	.st22{fill:#42A5F5;}
	.st23{fill:none;stroke:#FFAB40;stroke-linecap:round;stroke-linejoin:round;}
	.st24{fill:#FFAB40;}
	.st25{fill:none;stroke:#FFAB40;stroke-linecap:round;stroke-linejoin:round;stroke-miterlimit:10;}
	.st26{fill:#FFFFFF;stroke:#FFAB40;stroke-linecap:round;stroke-linejoin:round;stroke-miterlimit:10;}
	.st27{fill:none;stroke:#CE93D8;stroke-linecap:round;stroke-linejoin:round;stroke-miterlimit:10;}
	.st28{fill:#FFFFFF;stroke:#CE93D8;stroke-linecap:round;stroke-linejoin:round;stroke-miterlimit:10;}
	.st29{fill:none;stroke:#CE93D8;stroke-width:0.75;stroke-linecap:round;stroke-linejoin:round;stroke-dasharray:1.4016,2.8031;}
	.st30{fill:none;stroke:#CE93D8;stroke-linecap:round;stroke-linejoin:round;}
	.st31{fill:#CE93D8;}
	.st32{fill:#FFFFFF;stroke:#CE93D8;stroke-width:0.75;stroke-linecap:round;stroke-linejoin:round;stroke-miterlimit:10;}
	.st33{fill:none;stroke:#66BB6A;stroke-linecap:round;stroke-linejoin:round;stroke-miterlimit:10;}
	.st34{fill:#FFFFFF;stroke:#66BB6A;stroke-linecap:round;stroke-linejoin:round;stroke-miterlimit:10;}
	.st35{fill:#FFFFFF;stroke:#66BB6A;stroke-width:0.75;stroke-linecap:round;stroke-linejoin:round;stroke-miterlimit:10;}
	.st36{fill:none;stroke:#66BB6A;stroke-linecap:round;stroke-linejoin:round;}
	.st37{fill:#66BB6A;}
	.st38{fill:none;stroke:#66BB6A;stroke-width:0.75;stroke-linecap:round;stroke-linejoin:round;stroke-miterlimit:10;}
	.st39{fill:none;stroke:#FF8A80;stroke-linecap:round;stroke-linejoin:round;stroke-miterlimit:10;}
	.st40{fill:#FFFFFF;stroke:#FF8A80;stroke-width:0.75;stroke-linecap:round;stroke-linejoin:round;stroke-miterlimit:10;}
	.st41{fill:none;stroke:#FF8A80;stroke-linecap:round;stroke-linejoin:round;}
	.st42{fill:#FF8A80;}
	.st43{fill:none;stroke:#FF8A80;stroke-width:0.75;stroke-linecap:round;stroke-linejoin:round;stroke-miterlimit:10;}
	.st44{fill:#FAFAFA;stroke:#FF8A80;stroke-linecap:round;stroke-linejoin:round;stroke-miterlimit:10;}
	.st45{fill:#FFFFFF;stroke:#FF8A80;stroke-linecap:round;stroke-linejoin:round;stroke-miterlimit:10;}
	.st46{fill:#E57373;}
	.st47{fill:#0288D1;}
	.st48{fill:#FBC02D;}
	.st49{fill:#40C4FF;}
	.st50{fill:#827717;}
	.st51{fill:#00897B;}
	.st52{fill:#FF8A65;}
	.st53{fill:#546E7A;}
	.st54{fill:none;}
	.st55{fill:#FAFAFA;}
	.st56{fill:#004D7F;}
	.st57{fill:#808080;}
	.st58{fill:#1B5E20;}
	.st59{fill:#FF00FF;}
	.st60{fill:#CCCCCC;}
	.st61{fill:#999999;}
	.st62{fill:none;stroke:#333333;stroke-linecap:round;stroke-linejoin:round;}
	.st63{fill:#FFFFFF;stroke:#1A1A1A;stroke-width:0.75;stroke-linecap:round;stroke-linejoin:round;stroke-miterlimit:10;}
	.st64{fill:none;stroke:#333333;stroke-linejoin:bevel;}
	.st65{fill:none;stroke:#1A1A1A;stroke-width:0.75;stroke-linecap:round;stroke-linejoin:round;stroke-miterlimit:10;}
	.st66{fill:#FFFFFF;stroke:#333333;stroke-linejoin:bevel;stroke-miterlimit:10;}
	.st67{fill:#FAFAFA;stroke:#1A1A1A;stroke-width:0.75;stroke-linecap:round;stroke-linejoin:round;stroke-miterlimit:10;}
	.st68{fill:#FFFFFF;stroke:#1A1A1A;stroke-linecap:round;stroke-linejoin:round;stroke-miterlimit:10;}
	.st69{fill:#FAFAFA;stroke:#333333;stroke-width:0.75;stroke-linecap:round;stroke-linejoin:round;stroke-miterlimit:10;}
	.st70{fill:#FFFFFF;stroke:#333333;stroke-width:0.75;stroke-linecap:round;stroke-linejoin:round;stroke-miterlimit:10;}
	.st71{fill:none;stroke:#333333;stroke-width:0.75;stroke-linecap:round;stroke-linejoin:round;stroke-miterlimit:10;}
	.st72{fill:#333333;stroke:#333333;stroke-linejoin:bevel;stroke-miterlimit:10;}
	.st73{fill:#FAA61A;}
	.st74{fill:none;stroke:#000000;stroke-miterlimit:10;}
	.st75{fill:#0071BC;}
	.st76{fill:#FFFFFF;stroke:#000000;stroke-miterlimit:10;}
	.st77{fill:#FFFFFF;stroke:#000000;stroke-width:3;stroke-miterlimit:10;}
	.st78{fill:#ACACAC;}
	.st79{fill:#BDBDBD;}
	.st80{fill:#373737;}
	.st81{fill:none;stroke:#000000;stroke-linecap:round;stroke-linejoin:round;}
	.st82{fill:#FFFFFF;stroke:#4D4D4D;stroke-width:0.75;stroke-linecap:round;stroke-linejoin:round;stroke-miterlimit:10;}
	.st83{fill:none;stroke:#4D4D4D;stroke-linecap:round;stroke-linejoin:round;}
	.st84{fill:#4D4D4D;}
</style>
<path class="st12" d="M2.9,8.5h11.8c0.3,0,0.5-0.2,0.5-0.5s-0.2-0.5-0.5-0.5H2.9C2.6,7.5,2.4,7.7,2.4,8S2.6,8.5,2.9,8.5z"/>
<path class="st12" d="M17.3,12.2V4.7V3.8c0-2.1-1.7-3.8-3.8-3.8h-0.9H0.5C0.2,0,0,0.2,0,0.5v21.3c0,0.3,0.2,0.5,0.5,0.5h12.1
	c0.1,0,0.2,0,0.3,0s0.2,0,0.3,0h3.5c0.3,0,0.5-0.2,0.5-0.5v-1.4c1-1.1,1.6-2.5,1.6-4.1S18.3,13.3,17.3,12.2z M13.1,1h0.4
	c1.5,0,2.8,1.2,2.8,2.8v0.4h-3.2V1z M1,21.3V1h11.1v3.7c0,0.3,0.2,0.5,0.5,0.5h3.7v6.2c-1-0.7-2.1-1-3.4-1c-0.7,0-1.3,0.1-1.9,0.3
	H2.9c-0.3,0-0.5,0.2-0.5,0.5s0.2,0.5,0.5,0.5h6.2c-0.6,0.5-1.2,1.1-1.6,1.9H2.9c-0.3,0-0.5,0.2-0.5,0.5s0.2,0.5,0.5,0.5h4.2
	c-0.2,0.6-0.3,1.2-0.3,1.8c0,2.1,1.1,3.9,2.7,5H1z M16.3,21.3L16.3,21.3C16.2,21.3,16.2,21.3,16.3,21.3L16.3,21.3z M12.9,21.4
	c-2.8,0-5-2.2-5-5s2.2-5,5-5s5,2.2,5,5S15.6,21.4,12.9,21.4z"/>
<path class="st12" d="M16.1,15.9h-2.8v-2.8c0-0.3-0.2-0.5-0.5-0.5s-0.5,0.2-0.5,0.5v2.8H9.6c-0.3,0-0.5,0.2-0.5,0.5s0.2,0.5,0.5,0.5
	h2.8v2.8c0,0.3,0.2,0.5,0.5,0.5s0.5-0.2,0.5-0.5v-2.8h2.8c0.3,0,0.5-0.2,0.5-0.5S16.4,15.9,16.1,15.9z"/>
</svg>
