<?xml version="1.0" encoding="utf-8"?>
<!-- Generator: Adobe Illustrator 19.1.0, SVG Export Plug-In . SVG Version: 6.00 Build 0)  -->
<svg version="1.1" id="Layer_1" xmlns="http://www.w3.org/2000/svg" xmlns:xlink="http://www.w3.org/1999/xlink" x="0px" y="0px"
	 viewBox="0 0 112.2 111.6" style="enable-background:new 0 0 112.2 111.6;" xml:space="preserve">
<style type="text/css">
	.st0{fill:#FFFFFF;stroke:#308ECC;stroke-linecap:round;stroke-linejoin:round;stroke-miterlimit:10;}
	.st1{fill:#FFFFFF;stroke:#308ECC;stroke-width:20;stroke-linecap:round;stroke-linejoin:round;stroke-miterlimit:10;}
	.st2{fill:#308ECC;stroke:#308ECC;stroke-width:20;stroke-linecap:round;stroke-linejoin:round;stroke-miterlimit:10;}
	.st3{fill:#308ECC;}
	.st4{fill:none;stroke:#616262;stroke-width:2;stroke-linecap:round;stroke-linejoin:round;stroke-miterlimit:10;}
	.st5{fill:none;stroke:#308ECC;stroke-width:13;stroke-miterlimit:10;}
	.st6{fill:#308ECC;stroke:#FFFFFF;stroke-width:10;stroke-miterlimit:10;}
	.st7{fill:none;}
	.st8{fill:#308ECC;stroke:#FFFFFF;stroke-width:5;stroke-miterlimit:10;}
	.st9{fill:#FFFFFF;}
	.st10{fill:#BDBDBD;}
	.st11{fill:none;stroke:#308ECC;stroke-width:5;stroke-linecap:round;stroke-linejoin:round;stroke-miterlimit:10;}
	.st12{fill:none;stroke:#BDBDBD;stroke-width:10;stroke-linecap:round;stroke-linejoin:round;stroke-miterlimit:10;}
	.st13{fill:#BDBDBD;stroke:#FFFFFF;stroke-width:5;stroke-miterlimit:10;}
	.st14{fill:none;stroke:#BDBDBD;stroke-width:10;stroke-miterlimit:10;}
</style>
<path class="st4" d="M41.7,96.1V89c0,0-0.1,0-0.1,0L38.4,89l-0.3,0c-0.1,0-0.2,0-0.3,0C21,89,7.4,75.4,7.4,58.7
	c0-9,4-17.1,10.2-22.7c0.7-3.4,1.7-6.7,3.1-9.8C9,32.3,1,44.6,1,58.7c0,19.4,15.2,35.4,34.3,36.7v15.2l18.3-16.7
	c-2.4-0.6-4.7-1.4-6.9-2.4L41.7,96.1z"/>
<path class="st4" d="M66.4,1c-16.5,0-31,9-38.8,22.4c-1.5,2.6-2.8,5.4-3.8,8.3c-1.5,4.4-2.3,9.2-2.3,14.1c0,19.2,12.2,35.7,29.2,42
	c2.3,0.9,4.8,1.6,7.3,2c2.7,0.5,5.5,0.8,8.4,0.8c0.2,0,0.4,0,0.5,0c0.1,0,0.3,0,0.4,0l2.5-0.1v12.7l25.4-23.2
	c10.1-8.6,15.9-21,15.9-34.3C111.2,21.1,91.1,1,66.4,1z"/>
</svg>
