<?xml version="1.0" encoding="utf-8"?>
<!-- Generator: Adobe Illustrator 19.1.0, SVG Export Plug-In . SVG Version: 6.00 Build 0)  -->
<svg version="1.1" xmlns="http://www.w3.org/2000/svg" xmlns:xlink="http://www.w3.org/1999/xlink" x="0px" y="0px"
	 viewBox="0 0 1000 457.7" style="enable-background:new 0 0 1000 457.7;" xml:space="preserve">
<style type="text/css">
	.st0{fill:#666666;}
	.st1{fill:#FFFFFF;}
	.st2{fill:url(#SVGID_1_);}
	.st3{fill:url(#SVGID_2_);}
	.st4{fill:url(#SVGID_3_);}
	.st5{fill:url(#SVGID_4_);}
	.st6{fill:#FF7700;}
	.st7{fill:url(#SVGID_5_);}
	.st8{fill:url(#SVGID_6_);}
	.st9{fill:#1E587F;}
	.st10{fill:url(#SVGID_7_);}
	.st11{fill:url(#SVGID_8_);}
	.st12{fill:url(#SVGID_9_);}
	.st13{fill:url(#SVGID_10_);}
	.st14{fill:url(#SVGID_11_);}
	.st15{fill:url(#SVGID_12_);}
	.st16{fill:url(#SVGID_13_);}
	.st17{fill:url(#SVGID_14_);}
	.st18{fill:url(#SVGID_15_);}
	.st19{fill:url(#SVGID_16_);}
	.st20{fill:url(#SVGID_17_);}
	.st21{fill:url(#SVGID_18_);}
	.st22{fill:url(#SVGID_19_);stroke:url(#SVGID_20_);stroke-miterlimit:10;}
	.st23{fill:#004D7F;}
	.st24{fill:#308ECC;}
	.st25{fill:#3CB1FF;}
	.st26{opacity:0.75;}
	.st27{opacity:0.75;fill:#FFFFFF;}
	.st28{opacity:0.5;fill:#FFFFFF;}
	.st29{fill:#F2F2F2;}
	.st30{fill:#D3EDFF;}
	.st31{fill:#212121;}
	.st32{fill:#FAFAFA;}
	.st33{fill:#BDBDBD;}
	.st34{fill:#333333;}
	.st35{fill:#616161;}
</style>
<g id="Layer_2">
</g>
<g id="Layer_1">
	<g>
		<path class="st23" d="M289.2,181.8c7.8-10,19.6-19.9,33.6-12l0,0c0.2,0.1,0.4,0.2,0.6,0.2c0.6,0,1.1-0.5,1.1-1.1
			c0-0.2-0.1-0.4-0.2-0.6c-0.1-0.1-0.1-0.1-0.1-0.2c0,0,0,0,0,0c-2.8-4-7.2-9.7-12.3-15.4C302.4,160.9,294.7,170.4,289.2,181.8z"/>
		<path class="st24" d="M126.3,270.5c43.2,29.7,100.5,34.6,96.6,62.2c-3.9,27.7,17.2-21.2,17.2-21.2L126.3,270.5z"/>
		<path class="st24" d="M220.6,296.6c-0.8-2.9-1.7-5.8-2.8-8.7c-8.7-22.9-25.5-40.4-45.9-50.4c-22.1-10.8-48.4-12.8-73.2-3.4
			c-2.4,0.9-4.8,1.9-7.1,3c24.2,32.3,60.5,53.2,99.8,58.5l0,0c12.7,1.4,24.2,9.9,29.1,22.7c2.5,6.6,2.9,13.4,1.5,19.8l0.1,0
			C224.7,324.6,224.3,310.5,220.6,296.6z"/>
		<path class="st23" d="M98.5,156.1c-1.6-4.3-3.1-8.7-4.3-13.1c0,0,0,0,0,0c0-0.1-0.1-0.3-0.1-0.4c-1.9-7-3.3-14-4.2-21.1
			c-1.2-10-1.4-20-0.7-29.8c0-0.5,0.1-1,0.1-1.4c0.1-1.8,0.3-3.5,0.6-5.2c0-0.1,0-0.2,0-0.3c1.1-8.1,3.3-15.9,6.5-23.3
			c0.2-0.6,0.5-1.2,0.8-1.8c0-0.4,0-0.9-0.2-1.4c-0.2-0.5-0.5-0.9-0.9-1.2c0,0,0,0,0,0c-0.8-0.7-2-1-3.1-0.6
			c-0.6,0.2-1.1,0.6-1.4,1.1l0,0C75.2,79.4,64.9,105.6,62.3,133c-2.1,22.1,0.6,45,9,67.1c5.1,13.5,12,25.9,20.3,36.9
			c2.3-1.1,4.7-2.1,7.1-3c24.8-9.4,51.1-7.4,73.2,3.4l0,0C139.2,221.3,112.4,192.9,98.5,156.1z"/>
		<path class="st6" d="M94.2,142.6c0,0.1,0.1,0.3,0.1,0.4C94.2,142.8,94.2,142.7,94.2,142.6z"/>
		<path class="st6" d="M272.2,49.6c0.3-0.1,0.5-0.2,0.8-0.3c-0.1,0-0.2,0.1-0.3,0.1C272.6,49.5,272.4,49.6,272.2,49.6z"/>
		<path class="st25" d="M312,152.7c-9.2-12.1-25.6-17.3-40.6-11.6c-6.6,2.5-11.9,6.7-15.8,11.9l-0.1-0.1c-3.2,4.2-6.7,8.2-10.6,11.9
			c-8.6,8.1-18.9,14.7-30.6,19.1c-44.1,16.7-93-2.6-114.4-43.3l0,0c-0.7-1.4-2.3-2-3.8-1.5c-1.4,0.5-2.2,2-1.9,3.4
			c0,0.1,0.1,0.3,0.1,0.4c0,0,0,0,0,0c1.2,4.4,2.6,8.7,4.3,13.1c13.9,36.8,40.6,65.2,73.3,81.4l0,0c20.4,10,37.2,27.4,45.9,50.4
			c1.1,2.9,2,5.8,2.8,8.7c3.8,13.9,4.1,28,1.5,41.5c-5.1,26.3-21.5,49.9-46,63.3l0.1,0.1c-1.4,0.7-2.1,2.4-1.5,3.9
			c0.5,1.4,2,2.2,3.4,1.9c0,0,0,0,0,0c0.3-0.1,0.5-0.2,0.8-0.3c0,0,0,0,0,0c2.5-0.8,4.9-1.6,7.4-2.6c55.1-20.8,90.7-70.7,96-125.6
			c1-10.7,0.9-21.6-0.4-32.6c-0.3-2.4-0.7-4.8-1.1-7.2c-1.8-10.1-1.8-20.1-0.3-29.9C283.8,187.4,294.9,167.2,312,152.7z"/>
		<path class="st24" d="M222.9,332.7c5.2-39.5-16.4-76.3-53.3-96.3c-37-19.3-50.8-43.2-50.8-43.2s18.8,23.2,53,40.1
			S234.3,283.1,222.9,332.7z"/>
	</g>
	<path class="st9" d="M334.1,236.9c1.4-7.3,2.7-14.5,4.1-21.8c0.4-2.3,0.8-4.6,1.3-7c6.8,0,13.4,0,20.2,0
		c3.4-12.5,6.8-24.9,10.2-37.4c10.4,0,20.6,0,31.2,0c-2.2,12.4-4.4,24.6-6.7,37.3c10.9,0,21.6,0,32.6,0c-1.2,7.1-2.3,13.9-3.4,20.6
		c-0.5,2.7-1.1,5.4-1.4,8.1c-0.2,2.2-1.1,2.9-3.3,2.9c-8.9-0.1-17.8,0-26.7-0.1c-2.3,0-3.3,0.4-3.7,3c-3.3,19.3-6.8,38.6-10.2,57.9
		c-0.3,1.4-0.4,2.9-0.4,4.4c-0.1,7,3,10.5,10.1,10.9c4.5,0.2,9-0.2,13.4-0.4c1.7-0.1,3.5-0.3,5.6-0.4c-0.7,4.2-1.3,8.1-2,12
		c-0.9,5.5-1.9,11-3,16.4c-0.2,0.9-1.2,2.2-1.9,2.3c-12.4,1.7-24.8,3.2-37.2,0c-12.7-3.3-20.1-12.4-21.1-25.6
		c-0.7-9.2,1-18.1,2.6-27c3-16.8,6.1-33.6,9.1-50.4c0.2-0.9,0.2-1.7,0.3-2.9c-6.6-0.5-13.1-1-19.6-1.5
		C334.1,237.7,334.1,237.3,334.1,236.9z"/>
	<path class="st9" d="M935.5,318.2c-0.9,4.7-1.7,9.1-2.5,13.6c-0.8,4.2-1.5,8.5-2.4,12.6c-0.2,0.8-1,2.1-1.7,2.2
		c-12.3,2.2-23.8,0.9-33.1-8.3c-1.4-1.4-2.6-3.1-4-4.8c-7.2,5.3-15,9.2-23.6,11.5c-18.9,5-36.8,3.4-52.9-8.4
		c-11.1-8.2-17.4-19.7-19.9-33.1c-4.3-22.9,0.1-44.3,13.1-63.6c9.6-14.2,22.4-24.8,38.7-30.3c17.6-6,35-6.2,51.5,4
		c1,0.6,1.9,1.4,2.8,2.1c0.8,0.7,1.6,1.4,2.8,2.3c1.1-2.8,2.1-5.5,3.3-8.1c0.4-0.8,1.5-1.6,2.2-1.6c9.4-0.1,18.8-0.1,28.1,0
		c0.3,0,0.5,0.2,1.1,0.4c-0.9,5.2-1.8,10.3-2.7,15.5c-4.4,25.1-8.9,50.1-13.4,75.2c-0.3,1.7-0.7,3.5-1,5.2
		c-1.4,8,2.4,12.8,10.5,13.5C933.5,318,934.4,318.1,935.5,318.2z M859.1,316.3c9.4-0.1,17.7-3.1,25.4-8.5c2.1-1.5,3-3.3,3.4-5.7
		c3-17.1,6-34.2,9.2-51.2c0.5-2.8,0-4.6-2.2-6.3c-11.5-9-24.2-10.8-37.5-5.5c-18.3,7.2-30.2,29.5-27.9,50
		C831.3,306.2,843.6,316.5,859.1,316.3z"/>
	<path class="st9" d="M457.7,301.3c4.2,8.3,10.9,12.6,19.2,14.2c11.2,2.2,22,0.2,32.5-3.6c6.3-2.3,12.4-5.2,18.8-7.9
		c3.2,9,6.4,18.1,9.7,27.4c-7.9,4.8-16.1,8.4-24.6,11.2c-14.3,4.6-28.9,6.6-43.9,4.1c-23.4-3.8-42.7-18.9-48-43
		c-6.6-30.1,2-56.1,24.5-77c17.3-16.1,38.4-22.5,61.7-21.1c15.3,0.9,29,6,39.4,17.9c15,17,11.9,44.1-6.5,57.5
		c-10.7,7.8-22.9,12.3-35.7,14.5c-13.9,2.4-28,3.7-42.1,5.5C461.1,301.1,459.7,301.1,457.7,301.3z M455.4,272.5
		c15.1-0.8,29.6-2.1,43.9-5.8c6.8-1.8,13.5-4,18.8-9.1c6.1-6,5.1-14.1-2.2-18.4c-1.2-0.7-2.4-1.3-3.7-1.7
		c-16.3-4.4-30.7-0.8-43.3,10.2C461.5,254.2,457,262.4,455.4,272.5z"/>
	<path class="st9" d="M678.2,216.6c-6.7,9.2-13.3,18.2-19.7,27c-6.3-2-12.3-4.3-18.4-5.8c-9.4-2.4-18.9-3-28.3,0.4
		c-2.2,0.8-4.5,2.2-6.1,3.8c-3.5,3.6-2.7,8.3,2,10.3c5.7,2.3,11.8,4.1,17.7,5.7c8.5,2.4,16.9,4.7,24.6,9c16.3,9,21,25.2,16.7,41.8
		c-3.6,14.1-12.8,24.1-25.7,29.9c-29.9,13.4-59.3,11.6-87.7-5.1c-0.7-0.4-1.3-0.9-1.9-1.3c-0.1-0.1-0.2-0.3-0.5-0.7
		c6.2-9,12.5-18,18.9-27.2c1.9,1.1,3.6,2.2,5.5,3.2c10.3,5.7,21.2,9.5,33.2,8.9c6.5-0.4,12.8-1.7,18-6c1.7-1.4,3.1-3.3,4.1-5.2
		c2.1-4.2,1.1-8.3-3-10.2c-5.8-2.6-12-4.4-18.1-6.5c-8-2.8-16.3-4.9-23.9-8.4c-21.8-10.2-22.9-36.2-10.5-52
		c9.1-11.6,21.5-18.1,35.6-20.9c20.9-4.2,41.4-2,61.1,6.2C673.9,214.3,675.9,215.5,678.2,216.6z"/>
	<path class="st9" d="M668.5,331.7c6.3-9.1,12.6-18.1,18.5-26.7c7.2,3.1,13.9,6.7,21.1,9.1c11,3.7,22.2,4,33-1.5
		c3.2-1.6,5.8-4,7.2-7.4c1.7-4.1,0.9-8.2-3.1-10c-5.8-2.6-12-4.4-18-6.5c-8.2-2.9-16.6-5-24.4-8.7c-20-9.4-22.1-32.9-12.5-48.3
		c7.7-12.3,19.4-19.5,33-23.2c22.6-6.1,44.9-3.8,66.5,5.1c2,0.8,3.8,1.9,6,3.1c-6.7,9.2-13.3,18.2-19.5,26.6
		c-8.6-2.3-16.7-4.9-24.9-6.6c-7.4-1.5-15-1.2-22.2,1.5c-2,0.8-4.1,2-5.7,3.5c-3.7,3.5-3.1,8.5,1.6,10.5c5.8,2.4,11.9,4.1,18,5.8
		c8.3,2.4,16.7,4.7,24.4,8.9c16.4,9,21.1,25.4,16.8,42.1c-3.6,13.8-12.6,23.8-25.2,29.5c-30.5,13.8-60.4,11.8-89.2-5.6
		c-0.2-0.2-0.5-0.3-0.7-0.5C668.9,332.3,668.8,332.1,668.5,331.7z"/>
</g>
</svg>
