<?xml version="1.0" encoding="utf-8"?>
<!-- Generator: Adobe Illustrator 19.1.0, SVG Export Plug-In . SVG Version: 6.00 Build 0)  -->
<svg version="1.1" id="Layer_1" xmlns="http://www.w3.org/2000/svg" xmlns:xlink="http://www.w3.org/1999/xlink" x="0px" y="0px"
	 viewBox="0 0 112 126.5" style="enable-background:new 0 0 112 126.5;" xml:space="preserve">
<style type="text/css">
	.st0{fill:#FFFFFF;stroke:#308ECC;stroke-linecap:round;stroke-linejoin:round;stroke-miterlimit:10;}
	.st1{fill:#FFFFFF;stroke:#308ECC;stroke-width:20;stroke-linecap:round;stroke-linejoin:round;stroke-miterlimit:10;}
	.st2{fill:#308ECC;stroke:#308ECC;stroke-width:20;stroke-linecap:round;stroke-linejoin:round;stroke-miterlimit:10;}
	.st3{fill:#308ECC;}
	.st4{fill:none;stroke:#616262;stroke-width:2;stroke-linecap:round;stroke-linejoin:round;stroke-miterlimit:10;}
	.st5{fill:none;stroke:#308ECC;stroke-width:13;stroke-miterlimit:10;}
	.st6{fill:#308ECC;stroke:#FFFFFF;stroke-width:10;stroke-miterlimit:10;}
	.st7{fill:none;}
	.st8{fill:#308ECC;stroke:#FFFFFF;stroke-width:5;stroke-miterlimit:10;}
	.st9{fill:#FFFFFF;}
	.st10{fill:#BDBDBD;}
	.st11{fill:none;stroke:#308ECC;stroke-width:5;stroke-linecap:round;stroke-linejoin:round;stroke-miterlimit:10;}
	.st12{fill:none;stroke:#BDBDBD;stroke-width:10;stroke-linecap:round;stroke-linejoin:round;stroke-miterlimit:10;}
	.st13{fill:#BDBDBD;stroke:#FFFFFF;stroke-width:5;stroke-miterlimit:10;}
	.st14{fill:none;stroke:#BDBDBD;stroke-width:10;stroke-miterlimit:10;}
    
    
</style>
<g>
	<path class="st4" d="M56,27.3c-9.7,0-17.7,7.9-17.7,17.7c0,9.7,7.9,17.7,17.7,17.7c9.7,0,17.7-7.9,17.7-17.7
		C73.7,35.3,65.7,27.3,56,27.3z M56,51.8c-3.8,0-6.8-3.1-6.8-6.8s3.1-6.8,6.8-6.8c3.8,0,6.8,3.1,6.8,6.8S59.8,51.8,56,51.8z"/>
	<path class="st4" d="M111,53.7c0-0.2,0-0.4,0-0.6c0,0,0-0.1,0-0.1c0-0.2-0.1-0.3-0.1-0.5c0-0.1,0-0.1,0-0.2c0-0.1-0.1-0.3-0.1-0.4
		c0-0.1,0-0.1-0.1-0.2c-0.1-0.2-0.2-0.4-0.3-0.6c-0.1-0.2-0.2-0.4-0.3-0.5c0,0-0.1-0.1-0.1-0.1c-0.1-0.1-0.2-0.3-0.3-0.4
		c0,0-0.1-0.1-0.1-0.1c-0.1-0.1-0.2-0.2-0.3-0.3c0,0-0.1-0.1-0.1-0.1c-0.1-0.1-0.3-0.2-0.4-0.3c0,0,0,0-0.1,0c0,0,0,0,0,0
		c0,0,0,0,0,0l-8-5.3c-0.2-0.1-0.4-0.2-0.5-0.3C99.2,20,79.8,1,56,1S12.8,20,12,43.6c-0.2,0.1-0.4,0.2-0.5,0.3l-8,5.3c0,0,0,0,0,0
		c0,0,0,0,0,0c0,0,0,0-0.1,0c-0.1,0.1-0.3,0.2-0.4,0.3c0,0-0.1,0.1-0.1,0.1c-0.1,0.1-0.2,0.2-0.3,0.3c0,0-0.1,0.1-0.1,0.1
		c-0.1,0.1-0.2,0.3-0.3,0.4c0,0-0.1,0.1-0.1,0.1c-0.1,0.2-0.2,0.3-0.3,0.5c-0.1,0.2-0.2,0.4-0.3,0.6c0,0.1,0,0.1-0.1,0.2
		c0,0.1-0.1,0.3-0.1,0.4c0,0.1,0,0.1-0.1,0.2c0,0.2-0.1,0.3-0.1,0.5c0,0,0,0.1,0,0.1c0,0.2,0,0.4,0,0.6c0,0,0,0,0,0v45.4
		c0,2.2,1.3,4.1,3.3,5l49.6,21c0.2,0.1,0.4,0.1,0.5,0.2c0,0,0.1,0,0.1,0c0.2,0.1,0.4,0.1,0.6,0.1c0.1,0,0.1,0,0.2,0
		c0.2,0,0.5,0.1,0.7,0.1h0h0c0.2,0,0.5,0,0.7-0.1c0.1,0,0.1,0,0.2,0c0.2,0,0.4-0.1,0.6-0.1c0,0,0.1,0,0.1,0c0.2-0.1,0.4-0.1,0.5-0.2
		l49.6-21c2-0.8,3.3-2.8,3.3-5L111,53.7C111,53.7,111,53.7,111,53.7z M50.6,83.2v5.5v23.2L11.8,95.5V61.9l4.3,1.8l8.3,3.5l14.1,6
		l9.5,4l2.6,1.1V83.2z M87.5,55.5L56,68.8L24.5,55.5c-1.1-3.3-1.7-6.8-1.7-10.5c0-18.3,14.9-33.2,33.2-33.2
		c18.3,0,33.2,14.9,33.2,33.2C89.2,48.7,88.6,52.2,87.5,55.5z"/>
	<path class="st4" d="M111,53.7c0-0.2,0-0.4,0-0.6c0,0,0-0.1,0-0.1c0-0.2-0.1-0.3-0.1-0.5c0-0.1,0-0.1,0-0.2c0-0.1-0.1-0.3-0.1-0.4
		c0-0.1,0-0.1-0.1-0.2c-0.1-0.2-0.2-0.4-0.3-0.6c-0.1-0.2-0.2-0.4-0.3-0.5c0,0-0.1-0.1-0.1-0.1c-0.1-0.1-0.2-0.3-0.3-0.4
		c0,0-0.1-0.1-0.1-0.1c-0.1-0.1-0.2-0.2-0.3-0.3c0,0-0.1-0.1-0.1-0.1c-0.1-0.1-0.3-0.2-0.4-0.3c0,0,0,0-0.1,0c0,0,0,0,0,0
		c0,0,0,0,0,0l-8-5.3c-0.2-0.1-0.4-0.2-0.5-0.3C99.2,20,79.8,1,56,1S12.8,20,12,43.6c-0.2,0.1-0.4,0.2-0.5,0.3l-8,5.3c0,0,0,0,0,0
		c0,0,0,0,0,0c0,0,0,0-0.1,0c-0.1,0.1-0.3,0.2-0.4,0.3c0,0-0.1,0.1-0.1,0.1c-0.1,0.1-0.2,0.2-0.3,0.3c0,0-0.1,0.1-0.1,0.1
		c-0.1,0.1-0.2,0.3-0.3,0.4c0,0-0.1,0.1-0.1,0.1c-0.1,0.2-0.2,0.3-0.3,0.5c-0.1,0.2-0.2,0.4-0.3,0.6c0,0.1,0,0.1-0.1,0.2
		c0,0.1-0.1,0.3-0.1,0.4c0,0.1,0,0.1-0.1,0.2c0,0.2-0.1,0.3-0.1,0.5c0,0,0,0.1,0,0.1c0,0.2,0,0.4,0,0.6c0,0,0,0,0,0v45.4
		c0,2.2,1.3,4.1,3.3,5l49.6,21c0.2,0.1,0.4,0.1,0.5,0.2c0,0,0.1,0,0.1,0c0.2,0.1,0.4,0.1,0.6,0.1c0.1,0,0.1,0,0.2,0
		c0.2,0,0.5,0.1,0.7,0.1h0h0c0.2,0,0.5,0,0.7-0.1c0.1,0,0.1,0,0.2,0c0.2,0,0.4-0.1,0.6-0.1c0,0,0.1,0,0.1,0c0.2-0.1,0.4-0.1,0.5-0.2
		l49.6-21c2-0.8,3.3-2.8,3.3-5L111,53.7C111,53.7,111,53.7,111,53.7z M50.6,83.2v5.5v23.2L11.8,95.5V61.9l4.3,1.8l8.3,3.5l14.1,6
		l9.5,4l2.6,1.1V83.2z M87.5,55.5L56,68.8L24.5,55.5c-1.1-3.3-1.7-6.8-1.7-10.5c0-18.3,14.9-33.2,33.2-33.2
		c18.3,0,33.2,14.9,33.2,33.2C89.2,48.7,88.6,52.2,87.5,55.5z"/>
</g>
</svg>
