<?xml version="1.0" encoding="utf-8"?>
<!-- Generator: Adobe Illustrator 19.1.0, SVG Export Plug-In . SVG Version: 6.00 Build 0)  -->
<svg version="1.1" xmlns="http://www.w3.org/2000/svg" xmlns:xlink="http://www.w3.org/1999/xlink" x="0px" y="0px"
	 viewBox="0 0 263 358" style="enable-background:new 0 0 263 358;" xml:space="preserve">
<style type="text/css">
	.st0{fill:#666666;}
	.st1{fill:#FFFFFF;}
	.st2{fill:url(#SVGID_1_);}
	.st3{fill:url(#SVGID_2_);}
	.st4{fill:url(#SVGID_3_);}
	.st5{fill:url(#SVGID_4_);}
	.st6{fill:#FF7700;}
	.st7{fill:url(#SVGID_5_);}
	.st8{fill:url(#SVGID_6_);}
	.st9{fill:#1E587F;}
	.st10{fill:url(#SVGID_7_);}
	.st11{fill:url(#SVGID_8_);}
	.st12{fill:url(#SVGID_9_);}
	.st13{fill:url(#SVGID_10_);}
	.st14{fill:url(#SVGID_11_);}
	.st15{fill:url(#SVGID_12_);}
	.st16{fill:url(#SVGID_13_);}
	.st17{fill:url(#SVGID_14_);}
	.st18{fill:url(#SVGID_15_);}
	.st19{fill:url(#SVGID_16_);}
	.st20{fill:url(#SVGID_17_);}
	.st21{fill:url(#SVGID_18_);}
	.st22{fill:url(#SVGID_19_);stroke:url(#SVGID_20_);stroke-miterlimit:10;}
	.st23{fill:#004D7F;}
	.st24{fill:#308ECC;}
	.st25{fill:#3CB1FF;}
	.st26{opacity:0.75;}
	.st27{opacity:0.75;fill:#FFFFFF;}
	.st28{opacity:0.5;fill:#FFFFFF;}
	.st29{fill:#F2F2F2;}
	.st30{fill:#D3EDFF;}
	.st31{fill:#212121;}
	.st32{fill:#FAFAFA;}
	.st33{fill:#BDBDBD;}
	.st34{fill:#333333;}
	.st35{fill:#616161;}
</style>
<g id="Layer_2">
</g>
<g id="Layer_1">
	<g>
		<path class="st23" d="M227.6,132.4c7.8-10,19.6-19.9,33.6-12l0,0c0.2,0.1,0.4,0.2,0.6,0.2c0.6,0,1.1-0.5,1.1-1.1
			c0-0.2-0.1-0.4-0.2-0.6c-0.1-0.1-0.1-0.1-0.1-0.2c0,0,0,0,0,0c-2.8-4-7.2-9.7-12.3-15.4C240.8,111.5,233.1,121.1,227.6,132.4z"/>
		<path class="st24" d="M64.7,221.1c43.2,29.7,100.5,34.6,96.6,62.2c-3.9,27.7,17.2-21.2,17.2-21.2L64.7,221.1z"/>
		<path class="st24" d="M159,247.2c-0.8-2.9-1.7-5.8-2.8-8.7c-8.7-22.9-25.5-40.4-45.9-50.4c-22.1-10.8-48.4-12.8-73.2-3.4
			c-2.4,0.9-4.8,1.9-7.1,3c24.2,32.3,60.5,53.2,99.8,58.5l0,0c12.7,1.4,24.2,9.9,29.1,22.7c2.5,6.6,2.9,13.4,1.5,19.8l0.1,0
			C163.1,275.3,162.7,261.1,159,247.2z"/>
		<path class="st23" d="M36.9,106.7c-1.6-4.3-3.1-8.7-4.3-13.1c0,0,0,0,0,0c0-0.1-0.1-0.3-0.1-0.4c-1.9-7-3.3-14-4.2-21.1
			c-1.2-10-1.4-20-0.7-29.8c0-0.5,0.1-1,0.1-1.4c0.1-1.8,0.3-3.5,0.6-5.2c0-0.1,0-0.2,0-0.3c1.1-8.1,3.3-15.9,6.5-23.3
			c0.2-0.6,0.5-1.2,0.8-1.8c0-0.4,0-0.9-0.2-1.4C35.3,8.4,35,8,34.6,7.7c0,0,0,0,0,0c-0.8-0.7-2-1-3.1-0.6c-0.6,0.2-1.1,0.6-1.4,1.1
			l0,0C13.6,30.1,3.3,56.2,0.7,83.7c-2.1,22.1,0.6,45,9,67.1c5.1,13.5,12,25.9,20.3,36.9c2.3-1.1,4.7-2.1,7.1-3
			c24.8-9.4,51.1-7.4,73.2,3.4l0,0C77.6,171.9,50.8,143.5,36.9,106.7z"/>
		<path class="st6" d="M32.6,93.2c0,0.1,0.1,0.3,0.1,0.4C32.6,93.5,32.6,93.3,32.6,93.2z"/>
		<path class="st6" d="M210.6,0.3c0.3-0.1,0.5-0.2,0.8-0.3c-0.1,0-0.2,0.1-0.3,0.1C211,0.2,210.8,0.2,210.6,0.3z"/>
		<path class="st25" d="M250.4,103.4c-9.2-12.1-25.6-17.3-40.6-11.6c-6.6,2.5-11.9,6.7-15.8,11.9l-0.1-0.1
			c-3.2,4.2-6.7,8.2-10.6,11.9c-8.6,8.1-18.9,14.7-30.6,19.1c-44.1,16.7-93-2.6-114.4-43.3l0,0c-0.7-1.4-2.3-2-3.8-1.5
			c-1.4,0.5-2.2,2-1.9,3.4c0,0.1,0.1,0.3,0.1,0.4c0,0,0,0,0,0c1.2,4.4,2.6,8.7,4.3,13.1c13.9,36.8,40.6,65.2,73.3,81.4l0,0
			c20.4,10,37.2,27.4,45.9,50.4c1.1,2.9,2,5.8,2.8,8.7c3.8,13.9,4.1,28,1.5,41.5c-5.1,26.3-21.5,49.9-46,63.3l0.1,0.1
			c-1.4,0.7-2.1,2.4-1.5,3.9c0.5,1.4,2,2.2,3.4,1.9c0,0,0,0,0,0c0.3-0.1,0.5-0.2,0.8-0.3c0,0,0,0,0,0c2.5-0.8,4.9-1.6,7.4-2.6
			c55.1-20.8,90.7-70.7,96-125.6c1-10.7,0.9-21.6-0.4-32.6c-0.3-2.4-0.7-4.8-1.1-7.2c-1.8-10.1-1.8-20.1-0.3-29.9
			C222.2,138,233.3,117.9,250.4,103.4z"/>
		<path class="st24" d="M161.3,283.3C166.6,243.9,145,207,108,187c-37-19.3-50.8-43.2-50.8-43.2s18.8,23.2,53,40.1
			S172.7,233.7,161.3,283.3z"/>
	</g>
</g>
</svg>
