<?xml version="1.0" encoding="utf-8"?>
<!-- Generator: Adobe Illustrator 19.1.0, SVG Export Plug-In . SVG Version: 6.00 Build 0)  -->
<svg version="1.1" id="Layer_1" xmlns="http://www.w3.org/2000/svg" xmlns:xlink="http://www.w3.org/1999/xlink" x="0px" y="0px"
	 viewBox="0 0 263.2 358.6" style="enable-background:new 0 0 263.2 358.6;" xml:space="preserve">
<style type="text/css">
	.st0{fill:none;stroke:#3CB1FF;stroke-width:0.1;stroke-miterlimit:10;}
	.st1{fill:none;stroke:#3CB1FF;stroke-width:0.1;stroke-miterlimit:10;}

	.st0, .st1{
  stroke-dasharray: 100;
  stroke-dashoffset: 0;
stroke:white;stroke-width:0.1;stroke-miterlimit:10;
-webkit-animation-delay: 3s; /* Safari 4.0 - 8.0 */

    animation: dash 5s linear alternate 3;
animation-fill-mode:forwards;

animation-delay: 2s;



}

@keyframes dash {
  from{
	stroke-dashoffset: 0;
	opacity: 1
	stroke:#308ECC;
  }

  to {
stroke-dashoffset: 100;
	opacity:0;
	stroke:#3CB1FF;
  }
}

</style>
<g>
	<path class="st0" d="M227.7,132.9c7.8-10,19.6-19.9,33.6-12l0,0c0.2,0.1,0.4,0.2,0.6,0.2c0.6,0,1.1-0.5,1.1-1.1
		c0-0.2-0.1-0.4-0.2-0.6c-0.1-0.1-0.1-0.1-0.1-0.2c0,0,0,0,0,0c-2.8-4-7.2-9.7-12.3-15.4C241,112,233.2,121.5,227.7,132.9z"/>
	<path class="st0" d="M159.1,247.7c-0.8-2.9-1.7-5.8-2.8-8.7c-8.7-22.9-25.5-40.4-45.9-50.4c-22.1-10.8-48.4-12.8-73.2-3.4
		c-2.4,0.9-4.8,1.9-7.1,3c24.2,32.3,60.5,53.2,99.8,58.5l0,0c12.7,1.4,24.2,9.9,29.1,22.7c2.5,6.6,2.9,13.4,1.5,19.8l0.1,0
		C163.2,275.7,162.9,261.6,159.1,247.7z"/>
	<path class="st0" d="M37.1,107.2c-1.6-4.3-3.1-8.7-4.3-13.1c0,0,0,0,0,0c0-0.1-0.1-0.3-0.1-0.4c-1.9-7-3.3-14-4.2-21.1
		c-1.2-10-1.4-20-0.7-29.8c0-0.5,0.1-1,0.1-1.4c0.1-1.8,0.3-3.5,0.6-5.2c0-0.1,0-0.2,0-0.3c1.1-8.1,3.3-15.9,6.5-23.3
		c0.2-0.6,0.5-1.2,0.8-1.8c0-0.4,0-0.9-0.2-1.4c-0.2-0.5-0.5-0.9-0.9-1.2c0,0,0,0,0,0c-0.8-0.7-2-1-3.1-0.6
		c-0.6,0.2-1.1,0.6-1.4,1.1l0,0C13.7,30.5,3.5,56.7,0.8,84.1c-2.1,22.1,0.6,45,9,67.1c5.1,13.5,12,25.9,20.3,36.9
		c2.3-1.1,4.7-2.1,7.1-3c24.8-9.4,51.1-7.4,73.2,3.4l0,0C77.7,172.4,51,144,37.1,107.2z"/>
	<path class="st1" d="M32.7,93.7c0,0.1,0.1,0.3,0.1,0.4C32.7,93.9,32.7,93.8,32.7,93.7z"/>
	<path class="st1" d="M210.8,0.7c0.3-0.1,0.5-0.2,0.8-0.3c-0.1,0-0.2,0.1-0.3,0.1C211.2,0.7,211,0.7,210.8,0.7z"/>
	<path class="st0" d="M250.5,103.8c-9.2-12.1-25.6-17.3-40.6-11.6c-6.6,2.5-11.9,6.7-15.8,11.9l-0.1-0.1c-3.2,4.2-6.7,8.2-10.6,11.9
		c-8.6,8.1-18.9,14.7-30.6,19.1c-44.1,16.7-93-2.6-114.4-43.3l0,0c-0.7-1.4-2.3-2-3.8-1.5c-1.4,0.5-2.2,2-1.9,3.4
		c0,0.1,0.1,0.3,0.1,0.4c0,0,0,0,0,0c1.2,4.4,2.6,8.7,4.3,13.1c13.9,36.8,40.6,65.2,73.3,81.4l0,0c20.4,10,37.2,27.4,45.9,50.4
		c1.1,2.9,2,5.8,2.8,8.7c3.8,13.9,4.1,28,1.5,41.5c-5.1,26.3-21.5,49.9-46,63.3l0.1,0.1c-1.4,0.7-2.1,2.4-1.5,3.9
		c0.5,1.4,2,2.2,3.4,1.9c0,0,0,0,0,0c0.3-0.1,0.5-0.2,0.8-0.3c0,0,0,0,0,0c2.5-0.8,4.9-1.6,7.4-2.6c55.1-20.8,90.7-70.7,96-125.6
		c1-10.7,0.9-21.6-0.4-32.6c-0.3-2.4-0.7-4.8-1.1-7.2c-1.8-10.1-1.8-20.1-0.3-29.9C222.3,138.5,233.4,118.3,250.5,103.8z"/>
</g>
</svg>
