<?xml version="1.0" encoding="utf-8"?>
<!-- Generator: Adobe Illustrator 19.1.0, SVG Export Plug-In . SVG Version: 6.00 Build 0)  -->
<svg version="1.1" id="Layer_1" xmlns="http://www.w3.org/2000/svg" xmlns:xlink="http://www.w3.org/1999/xlink" x="0px" y="0px"
	 viewBox="-250 52.3 458 457.7" style="enable-background:new -250 52.3 458 457.7;" xml:space="preserve">
<style type="text/css">
	.st0{fill:#004D7F;}
	.st1{fill:#308ECC;}
	.st2{fill:#FF7700;}
	.st3{fill:#3CB1FF;}
</style>
<g id="Layer_2">
</g>
<g>
	<path class="st0" d="M102.6,221.4c10-12.7,25-25.5,43-15.3l0,0c0.2,0.2,0.5,0.2,0.8,0.2c0.8,0,1.4-0.6,1.4-1.4
		c0-0.3-0.1-0.5-0.2-0.7c-0.1-0.1-0.1-0.2-0.2-0.3c0,0,0,0,0,0c-3.6-5.1-9.2-12.4-15.7-19.6C119.5,194.7,109.6,206.9,102.6,221.4z"
		/>
	<path class="st1" d="M-105.8,334.9c55.2,38,128.6,44.2,123.6,79.6s22-27.1,22-27.1L-105.8,334.9z"/>
	<path class="st1" d="M14.8,368.3c-1-3.8-2.2-7.5-3.6-11.2c-11.1-29.3-32.6-51.7-58.7-64.4c-28.2-13.8-61.9-16.4-93.6-4.4
		c-3.1,1.2-6.2,2.5-9.1,3.9c31,41.4,77.4,68,127.7,74.8l0,0c16.3,1.8,31,12.7,37.2,29.1c3.2,8.4,3.7,17.1,1.9,25.3l0.1,0
		C20,404.2,19.6,386.1,14.8,368.3z"/>
	<path class="st0" d="M-141.3,188.5c-2.1-5.5-3.9-11.1-5.5-16.7c0,0,0,0,0-0.1c-0.1-0.2-0.1-0.3-0.1-0.5c-2.5-8.9-4.2-17.9-5.3-26.9
		c-1.6-12.8-1.8-25.6-0.8-38.2c0-0.6,0.1-1.2,0.1-1.8c0.2-2.2,0.4-4.5,0.7-6.7c0-0.1,0-0.2,0-0.3c1.4-10.3,4.2-20.3,8.3-29.8
		c0.3-0.8,0.7-1.5,1-2.3c0-0.6,0-1.2-0.2-1.7c-0.2-0.6-0.6-1.2-1.1-1.6c0,0,0,0,0,0c-1.1-0.9-2.6-1.2-4-0.7
		c-0.8,0.3-1.4,0.8-1.8,1.4l-0.1,0c-21,28-34.1,61.5-37.5,96.6c-2.7,28.2,0.8,57.6,11.5,85.9c6.5,17.3,15.3,33.1,25.9,47.2
		c3-1.4,6-2.7,9.1-3.9c31.7-12,65.4-9.4,93.6,4.4l0,0C-89.3,272-123.5,235.6-141.3,188.5z"/>
	<path class="st2" d="M-146.9,171.3c0,0.2,0.1,0.3,0.1,0.5C-146.9,171.6-146.9,171.4-146.9,171.3z"/>
	<path class="st2" d="M80.9,52.4c0.3-0.1,0.7-0.2,1.1-0.3c-0.1,0.1-0.2,0.1-0.3,0.1C81.4,52.3,81.1,52.3,80.9,52.4z"/>
	<path class="st3" d="M131.7,184.3c-11.8-15.5-32.8-22.1-51.9-14.9c-8.4,3.2-15.3,8.6-20.2,15.3l-0.1-0.1
		c-4.1,5.4-8.6,10.5-13.6,15.2c-11,10.3-24.2,18.7-39.2,24.4c-56.4,21.3-119-3.4-146.3-55.4l0,0c-0.9-1.8-3-2.6-4.8-1.9
		c-1.8,0.7-2.8,2.6-2.4,4.4c0,0.2,0.1,0.3,0.1,0.5c0,0,0,0,0,0.1c1.5,5.6,3.4,11.2,5.5,16.7c17.8,47.1,52,83.5,93.8,104.2l0,0
		c26.1,12.7,47.6,35.1,58.7,64.4c1.4,3.7,2.6,7.4,3.6,11.2c4.8,17.8,5.2,35.9,1.9,53c-6.5,33.6-27.6,63.8-58.9,81l0.1,0.1
		c-1.8,0.9-2.7,3-1.9,4.9c0.7,1.8,2.5,2.8,4.3,2.5c0,0,0,0,0,0c0.3-0.1,0.7-0.2,1.1-0.3c0,0,0,0,0.1,0c3.2-1,6.3-2.1,9.5-3.3
		c70.5-26.6,116-90.4,122.9-160.6C95,332,94.9,318,93.2,304c-0.4-3-0.8-6.1-1.4-9.1c-2.3-12.9-2.4-25.8-0.4-38.3
		C95.6,228.6,109.9,202.8,131.7,184.3z"/>
	<path class="st1" d="M17.8,414.5c6.7-50.5-21-97.6-68.2-123.2c-47.4-24.7-65-55.2-65-55.2s24,29.7,67.8,51.3
		C-3.7,308.8,32.3,351,17.8,414.5z"/>
</g>
</svg>
